<svg width="375" height="175" viewBox="0 0 375 175" fill="none" xmlns="http://www.w3.org/2000/svg">
<g clip-path="url(#clip0_7_380)">
<path d="M10.5214 153.69C10.5226 151.922 11.1722 150.226 12.3272 148.976C13.4823 147.726 15.0483 147.024 16.6812 147.024C18.314 147.024 19.8801 147.726 21.0351 148.976C22.1902 150.226 22.8397 151.922 22.8409 153.69" fill="#F2F2F2"/>
<path d="M16.6812 153.69C16.637 153.69 16.5947 153.671 16.5635 153.637C16.5322 153.603 16.5147 153.558 16.5147 153.51V149.994C16.5147 149.946 16.5322 149.9 16.5634 149.867C16.5947 149.833 16.637 149.814 16.6812 149.814C16.7253 149.814 16.7677 149.833 16.7989 149.867C16.8301 149.9 16.8476 149.946 16.8476 149.994V153.51C16.8476 153.558 16.8301 153.603 16.7989 153.637C16.7677 153.671 16.7253 153.69 16.6812 153.69Z" fill="#CCCCCC"/>
<path d="M16.6811 152.482C16.6413 152.482 16.6028 152.467 16.5727 152.438L14.575 150.582C14.5582 150.566 14.5443 150.547 14.5343 150.526C14.5242 150.505 14.5181 150.482 14.5163 150.458C14.5146 150.434 14.5172 150.411 14.524 150.388C14.5308 150.365 14.5416 150.344 14.5559 150.326C14.5703 150.308 14.5878 150.293 14.6074 150.283C14.627 150.272 14.6484 150.266 14.6704 150.264C14.6923 150.262 14.7143 150.265 14.7352 150.273C14.756 150.28 14.7753 150.292 14.7918 150.308L16.7896 152.165C16.8154 152.189 16.8338 152.221 16.8423 152.257C16.8509 152.292 16.8491 152.33 16.8373 152.364C16.8255 152.399 16.8041 152.429 16.7762 152.45C16.7483 152.471 16.7151 152.482 16.6811 152.482L16.6811 152.482Z" fill="#CCCCCC"/>
<path d="M29.5001 153.69C29.5014 151.922 30.1509 150.226 31.3059 148.976C32.461 147.726 34.027 147.024 35.6599 147.024C37.2928 147.024 38.8588 147.726 40.0139 148.976C41.1689 150.226 41.8184 151.922 41.8197 153.69" fill="#F2F2F2"/>
<path d="M35.6599 153.69C35.6157 153.69 35.5734 153.671 35.5422 153.637C35.511 153.603 35.4934 153.558 35.4934 153.51V149.994C35.4934 149.946 35.511 149.9 35.5422 149.867C35.5734 149.833 35.6157 149.814 35.6599 149.814C35.704 149.814 35.7464 149.833 35.7776 149.867C35.8088 149.9 35.8264 149.946 35.8264 149.994V153.51C35.8264 153.558 35.8088 153.603 35.7776 153.637C35.7464 153.671 35.704 153.69 35.6599 153.69Z" fill="#CCCCCC"/>
<path d="M35.6598 152.482C35.62 152.482 35.5816 152.467 35.5514 152.438L33.5537 150.582C33.5369 150.566 33.523 150.547 33.5129 150.526C33.5028 150.505 33.4967 150.482 33.495 150.458C33.4932 150.434 33.4958 150.411 33.5026 150.388C33.5094 150.365 33.5202 150.344 33.5346 150.326C33.5489 150.308 33.5664 150.293 33.586 150.283C33.6057 150.272 33.6271 150.265 33.6491 150.264C33.671 150.262 33.693 150.265 33.7139 150.273C33.7348 150.28 33.754 150.292 33.7706 150.308L35.7683 152.165C35.7941 152.189 35.8125 152.221 35.8211 152.256C35.8296 152.292 35.8278 152.33 35.816 152.364C35.8042 152.399 35.7829 152.429 35.755 152.45C35.727 152.471 35.6938 152.482 35.6598 152.482L35.6598 152.482Z" fill="#CCCCCC"/>
<path d="M281.623 26.1577C288.163 26.1577 293.465 20.416 293.465 13.3332C293.465 6.2504 288.163 0.508667 281.623 0.508667C275.083 0.508667 269.781 6.2504 269.781 13.3332C269.781 20.416 275.083 26.1577 281.623 26.1577Z" fill="#F2F2F2"/>
<path d="M39.0411 168.005C44.9867 168.005 49.8065 166.787 49.8065 165.284C49.8065 163.782 44.9867 162.564 39.0411 162.564C33.0955 162.564 28.2756 163.782 28.2756 165.284C28.2756 166.787 33.0955 168.005 39.0411 168.005Z" fill="#F2F2F2"/>
<path d="M33.5456 53.6151C36.369 44.0672 43.2631 36.6625 51.4392 32.2584C61.1399 27.033 72.2872 26.4414 82.8202 28.4751C94.1907 30.6705 104.818 35.7316 115.104 41.2547C125.194 46.6721 135.121 52.3925 145.614 56.8694C166.562 65.7944 188.765 70.7751 211.264 71.5964C231.514 72.328 253.165 69.9252 270.504 57.599C286.391 46.305 296.501 27.673 301.766 8.25118C302.44 5.76474 303.039 3.25692 303.564 0.727723C303.717 -0.00285502 302.679 -0.314785 302.526 0.417791C298.279 20.6991 289.222 40.7439 273.747 53.6722C257.01 67.6549 235.044 70.8874 214.488 70.5175C191.743 70.0874 169.241 65.3846 147.982 56.6187C137.219 52.1813 127.062 46.4192 116.776 40.8563C106.716 35.4156 96.3738 30.3227 85.3115 27.8134C75.2101 25.5221 64.3951 25.3825 54.6558 29.4598C46.6363 32.8171 39.3242 38.8014 35.045 46.9876C34.0016 48.9938 33.1513 51.1108 32.5075 53.3052C32.2957 54.0214 33.3347 54.3281 33.5456 53.6151Z" fill="#F2F2F2"/>
<path d="M187.241 142.888C187.337 142.888 187.428 142.847 187.495 142.774C187.562 142.701 187.6 142.603 187.6 142.5C187.6 142.396 187.562 142.298 187.495 142.225C187.428 142.152 187.337 142.111 187.241 142.111H183.832V140.556H187.241C187.337 140.556 187.428 140.515 187.495 140.443C187.562 140.37 187.6 140.271 187.6 140.168C187.6 140.065 187.562 139.966 187.495 139.893C187.428 139.82 187.337 139.779 187.241 139.779H158.175C158.079 139.779 157.988 139.82 157.921 139.893C157.854 139.966 157.816 140.065 157.816 140.168C157.816 140.271 157.854 140.37 157.921 140.443C157.988 140.515 158.079 140.556 158.175 140.556H161.584V142.111H158.175C158.079 142.111 157.988 142.152 157.921 142.225C157.854 142.298 157.816 142.396 157.816 142.5C157.816 142.603 157.854 142.701 157.921 142.774C157.988 142.847 158.079 142.888 158.175 142.888H161.584V144.443H158.175C158.079 144.443 157.988 144.484 157.921 144.556C157.854 144.629 157.816 144.728 157.816 144.831C157.816 144.934 157.854 145.033 157.921 145.106C157.988 145.179 158.079 145.22 158.175 145.22H161.584V146.774H158.533C158.343 146.774 158.161 146.856 158.026 147.002C157.891 147.148 157.816 147.345 157.816 147.552C157.816 147.758 157.891 147.955 158.026 148.101C158.161 148.247 158.343 148.329 158.533 148.329H161.437C161.416 148.391 161.405 148.457 161.404 148.523V153.964C161.404 154.118 161.461 154.267 161.562 154.376C161.663 154.485 161.8 154.547 161.942 154.547C162.085 154.547 162.222 154.485 162.323 154.376C162.424 154.267 162.481 154.118 162.481 153.964V148.523C162.48 148.457 162.469 148.391 162.448 148.329H182.968C182.947 148.391 182.936 148.457 182.935 148.523V153.964C182.935 154.118 182.992 154.267 183.093 154.376C183.194 154.485 183.331 154.547 183.473 154.547C183.616 154.547 183.753 154.485 183.854 154.376C183.955 154.267 184.012 154.118 184.012 153.964V148.523C184.011 148.457 184 148.391 183.979 148.329H186.882C187.073 148.329 187.255 148.247 187.39 148.101C187.525 147.955 187.6 147.758 187.6 147.552C187.6 147.345 187.525 147.148 187.39 147.002C187.255 146.856 187.073 146.774 186.882 146.774H183.832V145.22H187.241C187.337 145.22 187.428 145.179 187.495 145.106C187.562 145.033 187.6 144.934 187.6 144.831C187.6 144.728 187.562 144.629 187.495 144.556C187.428 144.484 187.337 144.443 187.241 144.443H183.832V142.888H187.241ZM162.301 140.556H183.115V142.111H162.301V140.556ZM183.115 146.774H162.301V145.22H183.115V146.774ZM183.115 144.443H162.301V142.888H183.115V144.443Z" fill="#3F3D56"/>
<path d="M77.7967 126.577C77.7967 119.714 72.6555 103.427 66.3136 103.427C59.9716 103.427 54.8304 119.714 54.8304 126.577C54.8304 129.875 56.0402 133.038 58.1938 135.371C60.3473 137.703 63.2681 139.013 66.3136 139.013C69.3591 139.013 72.2799 137.703 74.4334 135.371C76.5869 133.038 77.7967 129.875 77.7967 126.577H77.7967Z" fill="#E6E6E6"/>
<path d="M74.9259 126.577C74.9259 119.714 69.7847 103.427 63.4428 103.427C57.1008 103.427 51.9596 119.714 51.9596 126.577C51.9596 129.875 53.1694 133.038 55.323 135.371C57.4765 137.703 60.3973 139.013 63.4428 139.013C66.4883 139.013 69.4091 137.703 71.5626 135.371C73.7161 133.038 74.926 129.875 74.926 126.577H74.9259Z" fill="#F2F2F2"/>
<path d="M63.8016 154.383C63.7064 154.383 63.6152 154.342 63.5479 154.269C63.4806 154.196 63.4428 154.098 63.4428 153.995V119.352C63.4428 119.249 63.4806 119.151 63.5479 119.078C63.6152 119.005 63.7064 118.964 63.8016 118.964C63.8968 118.964 63.9881 119.005 64.0554 119.078C64.1227 119.151 64.1605 119.249 64.1605 119.352V153.995C64.1605 154.098 64.1227 154.196 64.0554 154.269C63.9881 154.342 63.8968 154.383 63.8016 154.383Z" fill="#CCCCCC"/>
<path d="M63.8016 125.032C63.7307 125.032 63.6613 125.009 63.6023 124.966C63.5433 124.923 63.4973 124.863 63.4702 124.792C63.443 124.721 63.4359 124.642 63.4497 124.567C63.4636 124.492 63.4977 124.423 63.5479 124.368L68.2408 119.286C68.3081 119.213 68.3994 119.172 68.4945 119.172C68.5897 119.172 68.6809 119.213 68.7482 119.286C68.8155 119.359 68.8533 119.457 68.8533 119.56C68.8533 119.664 68.8155 119.762 68.7482 119.835L64.0553 124.918C64.0221 124.954 63.9825 124.982 63.939 125.002C63.8954 125.022 63.8487 125.032 63.8016 125.032Z" fill="#CCCCCC"/>
<path d="M195.858 154.383C195.763 154.383 195.671 154.342 195.604 154.269C195.537 154.196 195.499 154.098 195.499 153.995V119.352C195.499 119.249 195.537 119.151 195.604 119.078C195.671 119.005 195.763 118.964 195.858 118.964C195.953 118.964 196.044 119.005 196.112 119.078C196.179 119.151 196.217 119.249 196.217 119.352V153.995C196.217 154.098 196.179 154.196 196.112 154.269C196.044 154.342 195.953 154.383 195.858 154.383Z" fill="#3F3D56"/>
<path d="M234.255 126.577C234.255 119.714 229.114 103.427 222.772 103.427C216.43 103.427 211.288 119.714 211.288 126.577C211.288 129.875 212.498 133.038 214.652 135.371C216.805 137.703 219.726 139.013 222.772 139.013C225.817 139.013 228.738 137.703 230.891 135.371C233.045 133.038 234.255 129.875 234.255 126.577H234.255Z" fill="#E6E6E6"/>
<path d="M231.384 126.577C231.384 119.714 226.243 103.427 219.901 103.427C213.559 103.427 208.418 119.714 208.418 126.577C208.418 129.875 209.628 133.038 211.781 135.371C213.935 137.703 216.855 139.013 219.901 139.013C222.946 139.013 225.867 137.703 228.021 135.371C230.174 133.038 231.384 129.875 231.384 126.577H231.384Z" fill="#F2F2F2"/>
<path d="M220.26 154.383C220.164 154.383 220.073 154.342 220.006 154.269C219.939 154.196 219.901 154.098 219.901 153.995V119.352C219.901 119.249 219.939 119.151 220.006 119.078C220.073 119.005 220.164 118.964 220.26 118.964C220.355 118.964 220.446 119.005 220.513 119.078C220.581 119.151 220.619 119.249 220.619 119.352V153.995C220.619 154.098 220.581 154.196 220.513 154.269C220.446 154.342 220.355 154.383 220.26 154.383Z" fill="#CCCCCC"/>
<path d="M220.26 125.032C220.189 125.032 220.119 125.009 220.06 124.966C220.001 124.923 219.955 124.863 219.928 124.792C219.901 124.721 219.894 124.642 219.908 124.567C219.922 124.492 219.956 124.423 220.006 124.368L224.699 119.286C224.766 119.213 224.857 119.172 224.953 119.172C225.048 119.172 225.139 119.213 225.206 119.286C225.274 119.359 225.311 119.457 225.311 119.56C225.311 119.664 225.274 119.762 225.206 119.835L220.513 124.918C220.48 124.954 220.441 124.982 220.397 125.002C220.353 125.022 220.307 125.032 220.26 125.032Z" fill="#CCCCCC"/>
<path d="M101.84 20.1341H96.098C95.6699 20.1335 95.2594 19.9491 94.9567 19.6213C94.6539 19.2934 94.4837 18.8489 94.4832 18.3853V4.00625C94.4837 3.54259 94.6539 3.09808 94.9567 2.77023C95.2594 2.44238 95.6699 2.25796 96.098 2.25745H101.84C102.268 2.25796 102.678 2.44238 102.981 2.77023C103.284 3.09808 103.454 3.54259 103.454 4.00625V18.3853C103.454 18.8489 103.284 19.2934 102.981 19.6213C102.678 19.9491 102.268 20.1335 101.84 20.1341Z" fill="#E6E6E6"/>
<path d="M124.447 154.209H95.0215C94.2128 154.208 93.4375 153.859 92.8656 153.24C92.2938 152.621 91.9722 151.781 91.9712 150.905V22.2715C91.9722 21.3957 92.2938 20.5561 92.8656 19.9368C93.4375 19.3175 94.2128 18.9692 95.0215 18.9682H124.447C125.256 18.9692 126.031 19.3175 126.603 19.9368C127.175 20.5561 127.496 21.3957 127.497 22.2715V150.905C127.496 151.781 127.175 152.621 126.603 153.24C126.031 153.859 125.256 154.208 124.447 154.209Z" fill="#E6E6E6"/>
<path d="M106.863 154.209H77.4379C76.6292 154.208 75.8539 153.859 75.282 153.24C74.7102 152.621 74.3886 151.781 74.3876 150.905V22.2715C74.3886 21.3957 74.7102 20.5561 75.282 19.9368C75.8539 19.3175 76.6292 18.9692 77.4379 18.9682H106.863C107.672 18.9692 108.447 19.3175 109.019 19.9368C109.591 20.5561 109.913 21.3957 109.914 22.2715V150.905C109.913 151.781 109.591 152.621 109.019 153.24C108.447 153.859 107.672 154.208 106.863 154.209Z" fill="#F2F2F2"/>
<path d="M96.4568 20.1341H90.7153C90.2871 20.1335 89.8767 19.9491 89.5739 19.6213C89.2712 19.2934 89.1009 18.8489 89.1004 18.3853V4.00625C89.1009 3.54259 89.2712 3.09808 89.5739 2.77023C89.8767 2.44238 90.2871 2.25796 90.7153 2.25745H96.4568C96.885 2.25796 97.2954 2.44238 97.5982 2.77023C97.9009 3.09808 98.0712 3.54259 98.0717 4.00625V18.3853C98.0712 18.8489 97.9009 19.2934 97.5982 19.6213C97.2954 19.9491 96.885 20.1335 96.4568 20.1341Z" fill="#F2F2F2"/>
<path d="M88.921 48.1149H82.1029C81.865 48.1146 81.637 48.0121 81.4688 47.83C81.3006 47.6479 81.206 47.4009 81.2058 47.1433V35.8733C81.206 35.6157 81.3006 35.3688 81.4688 35.1866C81.637 35.0045 81.865 34.902 82.1029 34.9017H88.921C89.1589 34.902 89.3869 35.0045 89.5551 35.1866C89.7233 35.3688 89.8179 35.6157 89.8181 35.8733V47.1433C89.8179 47.4009 89.7233 47.6479 89.5551 47.83C89.3869 48.0121 89.1589 48.1146 88.921 48.1149Z" fill="white"/>
<path d="M102.198 48.1149H95.3803C95.1425 48.1146 94.9144 48.0121 94.7462 47.83C94.5781 47.6479 94.4834 47.4009 94.4832 47.1433V35.8733C94.4834 35.6157 94.5781 35.3688 94.7462 35.1866C94.9144 35.0045 95.1425 34.902 95.3803 34.9017H102.198C102.436 34.902 102.664 35.0045 102.832 35.1866C103.001 35.3688 103.095 35.6157 103.096 35.8733V47.1433C103.095 47.4009 103.001 47.6479 102.832 47.83C102.664 48.0121 102.436 48.1146 102.198 48.1149Z" fill="white"/>
<path d="M88.921 68.7119H82.1029C81.865 68.7116 81.637 68.6091 81.4688 68.427C81.3006 68.2448 81.206 67.9979 81.2058 67.7403V56.4703C81.206 56.2127 81.3006 55.9657 81.4688 55.7836C81.637 55.6015 81.865 55.499 82.1029 55.4987H88.921C89.1589 55.499 89.3869 55.6015 89.5551 55.7836C89.7233 55.9657 89.8179 56.2127 89.8181 56.4703V67.7403C89.8179 67.9979 89.7233 68.2448 89.5551 68.427C89.3869 68.6091 89.1589 68.7116 88.921 68.7119Z" fill="white"/>
<path d="M102.198 68.7119H95.3803C95.1425 68.7116 94.9144 68.6091 94.7462 68.427C94.5781 68.2448 94.4834 67.9979 94.4832 67.7403V56.4703C94.4834 56.2127 94.5781 55.9657 94.7462 55.7836C94.9144 55.6015 95.1425 55.499 95.3803 55.4987H102.198C102.436 55.499 102.664 55.6015 102.832 55.7836C103.001 55.9657 103.095 56.2127 103.096 56.4703V67.7403C103.095 67.9979 103.001 68.2448 102.832 68.427C102.664 68.6091 102.436 68.7116 102.198 68.7119Z" fill="white"/>
<path d="M88.921 89.3089H82.1029C81.865 89.3086 81.637 89.2061 81.4688 89.024C81.3006 88.8418 81.206 88.5949 81.2058 88.3373V77.0673C81.206 76.8097 81.3006 76.5627 81.4688 76.3806C81.637 76.1984 81.865 76.096 82.1029 76.0957H88.921C89.1589 76.096 89.3869 76.1984 89.5551 76.3806C89.7233 76.5627 89.8179 76.8097 89.8181 77.0673V88.3373C89.8179 88.5949 89.7233 88.8418 89.5551 89.024C89.3869 89.2061 89.1589 89.3086 88.921 89.3089Z" fill="white"/>
<path d="M102.198 89.3089H95.3803C95.1425 89.3086 94.9144 89.2061 94.7462 89.024C94.5781 88.8418 94.4834 88.5949 94.4832 88.3373V77.0673C94.4834 76.8097 94.5781 76.5627 94.7462 76.3806C94.9144 76.1984 95.1425 76.096 95.3803 76.0957H102.198C102.436 76.096 102.664 76.1984 102.832 76.3806C103.001 76.5627 103.095 76.8097 103.096 77.0673V88.3373C103.095 88.5949 103.001 88.8418 102.832 89.024C102.664 89.2061 102.436 89.3086 102.198 89.3089Z" fill="white"/>
<path d="M88.921 109.906H82.1029C81.865 109.905 81.637 109.803 81.4688 109.621C81.3006 109.439 81.206 109.192 81.2058 108.934V97.6642C81.206 97.4066 81.3006 97.1596 81.4688 96.9775C81.637 96.7954 81.865 96.6929 82.1029 96.6926H88.921C89.1589 96.6929 89.3869 96.7954 89.5551 96.9775C89.7233 97.1596 89.8179 97.4066 89.8181 97.6642V108.934C89.8179 109.192 89.7233 109.439 89.5551 109.621C89.3869 109.803 89.1589 109.905 88.921 109.906Z" fill="white"/>
<path d="M102.198 109.906H95.3803C95.1425 109.905 94.9144 109.803 94.7462 109.621C94.5781 109.439 94.4834 109.192 94.4832 108.934V97.6642C94.4834 97.4066 94.5781 97.1596 94.7462 96.9775C94.9144 96.7954 95.1425 96.6929 95.3803 96.6926H102.198C102.436 96.6929 102.664 96.7954 102.832 96.9775C103.001 97.1596 103.095 97.4066 103.096 97.6642V108.934C103.095 109.192 103.001 109.439 102.832 109.621C102.664 109.803 102.436 109.905 102.198 109.906Z" fill="white"/>
<path d="M88.921 130.503H82.1029C81.865 130.503 81.637 130.4 81.4688 130.218C81.3006 130.036 81.206 129.789 81.2058 129.531V118.261C81.206 118.004 81.3006 117.757 81.4688 117.575C81.637 117.392 81.865 117.29 82.1029 117.29H88.921C89.1589 117.29 89.3869 117.392 89.5551 117.575C89.7233 117.757 89.8179 118.004 89.8181 118.261V129.531C89.8179 129.789 89.7233 130.036 89.5551 130.218C89.3869 130.4 89.1589 130.503 88.921 130.503Z" fill="white"/>
<path d="M102.198 130.503H95.3803C95.1425 130.503 94.9144 130.4 94.7462 130.218C94.5781 130.036 94.4834 129.789 94.4832 129.531V118.261C94.4834 118.004 94.5781 117.757 94.7462 117.575C94.9144 117.392 95.1425 117.29 95.3803 117.29H102.198C102.436 117.29 102.664 117.392 102.832 117.575C103.001 117.757 103.095 118.004 103.096 118.261V129.531C103.095 129.789 103.001 130.036 102.832 130.218C102.664 130.4 102.436 130.503 102.198 130.503Z" fill="white"/>
<path d="M250.044 88.143H244.303C243.874 88.1424 243.464 87.958 243.161 87.6302C242.858 87.3023 242.688 86.8578 242.688 86.3942V78.2331C242.688 77.7695 242.858 77.325 243.161 76.9971C243.464 76.6693 243.874 76.4848 244.303 76.4843H250.044C250.472 76.4848 250.883 76.6692 251.185 76.9971C251.488 77.3249 251.658 77.7695 251.659 78.2331V86.3942C251.658 86.8578 251.488 87.3023 251.185 87.6302C250.883 87.958 250.472 88.1424 250.044 88.143Z" fill="#E6E6E6"/>
<path d="M298.489 154.597H269.063C268.254 154.596 267.479 154.248 266.907 153.629C266.335 153.009 266.014 152.17 266.013 151.294V89.5031C266.014 88.6273 266.335 87.7877 266.907 87.1684C267.479 86.5491 268.254 86.2008 269.063 86.1998H298.489C299.297 86.2008 300.073 86.5491 300.645 87.1684C301.216 87.7877 301.538 88.6273 301.539 89.5031V151.294C301.538 152.17 301.216 153.009 300.645 153.629C300.073 154.248 299.297 154.596 298.489 154.597Z" fill="#E6E6E6"/>
<path d="M280.905 154.597H229.949C229.14 154.596 228.365 154.248 227.793 153.629C227.221 153.009 226.899 152.17 226.898 151.294V89.5031C226.899 88.6273 227.221 87.7877 227.793 87.1684C228.365 86.5491 229.14 86.2008 229.949 86.1998H280.905C281.714 86.2008 282.489 86.5491 283.061 87.1684C283.633 87.7877 283.954 88.6273 283.955 89.5031V151.294C283.954 152.17 283.633 153.009 283.061 153.629C282.489 154.248 281.714 154.596 280.905 154.597Z" fill="#F2F2F2"/>
<path d="M244.661 88.143H238.92C238.492 88.1424 238.081 87.958 237.778 87.6302C237.476 87.3023 237.305 86.8578 237.305 86.3942V78.2331C237.305 77.7695 237.476 77.325 237.778 76.9971C238.081 76.6693 238.492 76.4848 238.92 76.4843H244.661C245.089 76.4848 245.5 76.6692 245.803 76.9971C246.105 77.3249 246.276 77.7695 246.276 78.2331V86.3942C246.276 86.8578 246.105 87.3023 245.803 87.6302C245.5 87.958 245.089 88.1424 244.661 88.143Z" fill="#F2F2F2"/>
<path d="M252.197 116.707H245.379C245.141 116.706 244.913 116.604 244.745 116.422C244.577 116.24 244.482 115.993 244.482 115.735V104.465C244.482 104.208 244.577 103.961 244.745 103.778C244.913 103.596 245.141 103.494 245.379 103.494H252.197C252.435 103.494 252.663 103.596 252.831 103.778C252.999 103.961 253.094 104.208 253.094 104.465V115.735C253.094 115.993 252.999 116.24 252.831 116.422C252.663 116.604 252.435 116.706 252.197 116.707Z" fill="white"/>
<path d="M265.475 116.707H258.656C258.419 116.706 258.191 116.604 258.022 116.422C257.854 116.24 257.76 115.993 257.759 115.735V104.465C257.76 104.208 257.854 103.961 258.022 103.778C258.191 103.596 258.419 103.494 258.656 103.494H265.475C265.712 103.494 265.94 103.596 266.109 103.778C266.277 103.961 266.371 104.208 266.372 104.465V115.735C266.371 115.993 266.277 116.24 266.109 116.422C265.94 116.604 265.712 116.706 265.475 116.707Z" fill="white"/>
<path d="M252.197 137.304H245.379C245.141 137.303 244.913 137.201 244.745 137.019C244.577 136.837 244.482 136.59 244.482 136.332V125.062C244.482 124.804 244.577 124.557 244.745 124.375C244.913 124.193 245.141 124.091 245.379 124.09H252.197C252.435 124.091 252.663 124.193 252.831 124.375C252.999 124.557 253.094 124.804 253.094 125.062V136.332C253.094 136.59 252.999 136.837 252.831 137.019C252.663 137.201 252.435 137.303 252.197 137.304Z" fill="white"/>
<path d="M265.475 137.304H258.656C258.419 137.303 258.191 137.201 258.022 137.019C257.854 136.837 257.76 136.59 257.759 136.332V125.062C257.76 124.804 257.854 124.557 258.022 124.375C258.191 124.193 258.419 124.091 258.656 124.09H265.475C265.712 124.091 265.94 124.193 266.109 124.375C266.277 124.557 266.371 124.804 266.372 125.062V136.332C266.371 136.59 266.277 136.837 266.109 137.019C265.94 137.201 265.712 137.303 265.475 137.304Z" fill="white"/>
<path d="M375.641 154.792H0.35885C0.263678 154.792 0.172403 154.751 0.105105 154.678C0.0378083 154.605 1.39651e-06 154.506 1.39651e-06 154.403C1.39651e-06 154.3 0.0378083 154.201 0.105105 154.128C0.172403 154.055 0.263678 154.014 0.35885 154.014H375.641C375.736 154.014 375.828 154.055 375.895 154.128C375.962 154.201 376 154.3 376 154.403C376 154.506 375.962 154.605 375.895 154.678C375.828 154.751 375.736 154.792 375.641 154.792Z" fill="#E6E6E6"/>
<path d="M130.189 168.393H96.8157C96.7205 168.393 96.6292 168.353 96.5619 168.28C96.4946 168.207 96.4568 168.108 96.4568 168.005C96.4568 167.902 96.4946 167.803 96.5619 167.73C96.6292 167.657 96.7205 167.616 96.8157 167.616H130.189C130.284 167.616 130.375 167.657 130.442 167.73C130.51 167.803 130.547 167.902 130.547 168.005C130.547 168.108 130.51 168.207 130.442 168.28C130.375 168.353 130.284 168.393 130.189 168.393Z" fill="#E6E6E6"/>
<path d="M213.083 168.393H179.71C179.615 168.393 179.523 168.353 179.456 168.28C179.389 168.207 179.351 168.108 179.351 168.005C179.351 167.902 179.389 167.803 179.456 167.73C179.523 167.657 179.615 167.616 179.71 167.616H213.083C213.178 167.616 213.269 167.657 213.336 167.73C213.404 167.803 213.442 167.902 213.442 168.005C213.442 168.108 213.404 168.207 213.336 168.28C213.269 168.353 213.178 168.393 213.083 168.393Z" fill="#E6E6E6"/>
<path d="M295.977 168.393H262.604C262.509 168.393 262.417 168.353 262.35 168.28C262.283 168.207 262.245 168.108 262.245 168.005C262.245 167.902 262.283 167.803 262.35 167.73C262.417 167.657 262.509 167.616 262.604 167.616H295.977C296.072 167.616 296.163 167.657 296.23 167.73C296.298 167.803 296.336 167.902 296.336 168.005C296.336 168.108 296.298 168.207 296.23 168.28C296.163 168.353 296.072 168.393 295.977 168.393Z" fill="#E6E6E6"/>
<path d="M149.208 126.577C149.208 119.714 144.066 103.427 137.724 103.427C131.382 103.427 126.241 119.714 126.241 126.577C126.241 129.875 127.451 133.038 129.605 135.371C131.758 137.703 134.679 139.013 137.724 139.013C140.77 139.013 143.691 137.703 145.844 135.371C147.998 133.038 149.208 129.875 149.208 126.577H149.208Z" fill="#E6E6E6"/>
<path d="M146.337 126.577C146.337 119.714 141.196 103.427 134.854 103.427C128.512 103.427 123.37 119.714 123.37 126.577C123.37 129.875 124.58 133.038 126.734 135.371C128.887 137.703 131.808 139.013 134.854 139.013C137.899 139.013 140.82 137.703 142.974 135.371C145.127 133.038 146.337 129.875 146.337 126.577Z" fill="#F2F2F2"/>
<path d="M135.213 154.383C135.117 154.383 135.026 154.342 134.959 154.269C134.891 154.196 134.854 154.098 134.854 153.995V119.352C134.854 119.249 134.891 119.151 134.959 119.078C135.026 119.005 135.117 118.964 135.213 118.964C135.308 118.964 135.399 119.005 135.466 119.078C135.534 119.151 135.571 119.249 135.571 119.352V153.995C135.571 154.098 135.534 154.196 135.466 154.269C135.399 154.342 135.308 154.383 135.213 154.383Z" fill="#CCCCCC"/>
<path d="M135.213 125.032C135.142 125.032 135.072 125.009 135.013 124.966C134.954 124.923 134.908 124.863 134.881 124.792C134.854 124.721 134.847 124.642 134.861 124.567C134.874 124.492 134.909 124.423 134.959 124.368L139.652 119.286C139.719 119.213 139.81 119.172 139.905 119.172C140.001 119.172 140.092 119.213 140.159 119.286C140.226 119.359 140.264 119.457 140.264 119.56C140.264 119.664 140.226 119.762 140.159 119.835L135.466 124.918C135.433 124.954 135.393 124.982 135.35 125.002C135.306 125.022 135.26 125.032 135.213 125.032Z" fill="#CCCCCC"/>
<path d="M332.579 126.577C332.579 119.714 327.438 103.427 321.096 103.427C314.754 103.427 309.613 119.714 309.613 126.577C309.613 129.875 310.823 133.038 312.976 135.371C315.13 137.703 318.051 139.013 321.096 139.013C324.142 139.013 327.062 137.703 329.216 135.371C331.37 133.038 332.579 129.875 332.579 126.577H332.579Z" fill="#E6E6E6"/>
<path d="M329.709 126.577C329.709 119.714 324.567 103.427 318.225 103.427C311.883 103.427 306.742 119.714 306.742 126.577C306.742 129.875 307.952 133.038 310.106 135.371C312.259 137.703 315.18 139.013 318.225 139.013C321.271 139.013 324.192 137.703 326.345 135.371C328.499 133.038 329.709 129.875 329.709 126.577H329.709Z" fill="#F2F2F2"/>
<path d="M318.584 154.383C318.489 154.383 318.398 154.342 318.33 154.269C318.263 154.196 318.225 154.098 318.225 153.995V119.352C318.225 119.249 318.263 119.151 318.33 119.078C318.398 119.005 318.489 118.964 318.584 118.964C318.679 118.964 318.771 119.005 318.838 119.078C318.905 119.151 318.943 119.249 318.943 119.352V153.995C318.943 154.098 318.905 154.196 318.838 154.269C318.771 154.342 318.679 154.383 318.584 154.383Z" fill="#CCCCCC"/>
<path d="M318.584 125.032C318.513 125.032 318.444 125.009 318.385 124.966C318.326 124.923 318.28 124.863 318.253 124.792C318.226 124.721 318.218 124.642 318.232 124.567C318.246 124.492 318.28 124.423 318.33 124.368L323.023 119.286C323.091 119.213 323.182 119.172 323.277 119.172C323.372 119.172 323.464 119.213 323.531 119.286C323.598 119.359 323.636 119.457 323.636 119.56C323.636 119.664 323.598 119.762 323.531 119.835L318.838 124.918C318.805 124.954 318.765 124.982 318.722 125.002C318.678 125.022 318.631 125.032 318.584 125.032Z" fill="#CCCCCC"/>
<path d="M199.805 130.891H191.911C191.673 130.891 191.445 130.789 191.276 130.607C191.108 130.424 191.014 130.177 191.013 129.92V121.37C191.014 121.113 191.108 120.866 191.276 120.683C191.445 120.501 191.673 120.399 191.911 120.399H199.805C200.043 120.399 200.271 120.501 200.439 120.683C200.608 120.866 200.702 121.113 200.702 121.37V129.92C200.702 130.177 200.608 130.424 200.439 130.607C200.271 130.789 200.043 130.891 199.805 130.891Z" fill="#3F3D56"/>
<path d="M276.443 135.055C276.529 135.079 276.61 135.124 276.678 135.186C276.747 135.248 276.802 135.325 276.84 135.412C276.878 135.5 276.898 135.595 276.898 135.691C276.898 135.788 276.879 135.884 276.842 135.971L278.402 137.601L277.303 137.868L275.99 136.279C275.858 136.201 275.757 136.074 275.706 135.921C275.655 135.768 275.658 135.6 275.714 135.449C275.77 135.298 275.875 135.175 276.009 135.102C276.144 135.029 276.298 135.013 276.443 135.055H276.443Z" fill="#FFB8B8"/>
<path d="M278.637 139.342L276.712 137.386C276.686 137.359 276.664 137.327 276.65 137.29C276.635 137.254 276.627 137.216 276.626 137.176C276.626 137.137 276.632 137.097 276.646 137.061C276.659 137.024 276.679 136.991 276.705 136.963L277.098 136.532C277.145 136.481 277.207 136.45 277.273 136.445C277.339 136.44 277.405 136.461 277.458 136.504L279.071 137.84L280.077 135.196C280.117 135.092 280.176 134.998 280.251 134.919C280.325 134.84 280.414 134.779 280.512 134.739C280.609 134.699 280.713 134.682 280.817 134.687C280.921 134.692 281.023 134.72 281.117 134.77C281.264 134.847 281.384 134.974 281.46 135.132C281.535 135.29 281.561 135.469 281.533 135.644C281.351 136.847 280.244 138.436 279.601 139.276C279.513 139.391 279.395 139.473 279.262 139.512C279.129 139.55 278.989 139.543 278.86 139.492C278.777 139.458 278.701 139.407 278.637 139.342Z" fill="#6C63FF"/>
<path d="M277.557 137.445L276.14 135.219C276.122 135.19 276.115 135.154 276.121 135.12C276.126 135.086 276.145 135.056 276.171 135.036L276.228 134.993C276.241 134.984 276.256 134.977 276.271 134.973C276.287 134.969 276.303 134.969 276.319 134.972C276.334 134.975 276.349 134.982 276.363 134.991C276.376 135.001 276.388 135.013 276.397 135.027L277.814 137.253C277.823 137.267 277.829 137.283 277.833 137.3C277.836 137.317 277.836 137.334 277.833 137.351C277.83 137.368 277.824 137.384 277.816 137.399C277.807 137.413 277.796 137.426 277.783 137.436L277.726 137.478C277.699 137.498 277.667 137.505 277.635 137.499C277.603 137.493 277.575 137.473 277.557 137.445Z" fill="white"/>
<path d="M277.161 137.461L275.985 135.614C275.935 135.535 275.916 135.437 275.932 135.343C275.948 135.249 275.997 135.166 276.07 135.111L276.19 135.022L277.745 137.464L277.625 137.553C277.552 137.608 277.462 137.629 277.375 137.611C277.288 137.594 277.211 137.54 277.161 137.461Z" fill="#3F3D56"/>
<path d="M277.303 153.406L276.564 153.314L276.662 150.199L277.632 150.321L277.303 153.406Z" fill="#FFB8B8"/>
<path d="M277.409 154.206L275.027 153.908L275.03 153.875C275.044 153.743 275.082 153.616 275.142 153.5C275.201 153.384 275.282 153.282 275.378 153.199C275.474 153.117 275.584 153.055 275.702 153.019C275.819 152.983 275.943 152.972 276.065 152.987H276.065L277.519 153.169L277.409 154.206Z" fill="#2F2E41"/>
<path d="M285.894 152.815L285.183 153.053L283.999 150.198L285.047 149.847L285.894 152.815Z" fill="#FFB8B8"/>
<path d="M286.288 153.5L283.997 154.267L283.988 154.235C283.952 154.108 283.939 153.975 283.95 153.843C283.962 153.711 283.997 153.582 284.054 153.465C284.111 153.348 284.189 153.244 284.284 153.159C284.378 153.074 284.487 153.01 284.604 152.971H284.604L286.003 152.503L286.288 153.5Z" fill="#2F2E41"/>
<path d="M276.478 152.688C276.403 152.663 276.34 152.608 276.303 152.533C276.265 152.458 276.255 152.371 276.276 152.289L276.721 146.737C276.742 146.484 276.816 146.239 276.936 146.021L279.632 141.177L282.044 141.646L282.06 141.653C283.232 142.43 284.273 146.201 285.28 149.847C285.436 150.414 285.598 151.001 285.756 151.561C285.785 151.641 285.785 151.73 285.754 151.81C285.724 151.889 285.666 151.953 285.592 151.986L284.862 152.319C284.793 152.351 284.715 152.354 284.644 152.327C284.573 152.3 284.514 152.246 284.478 152.174L280.723 144.73C280.719 144.72 280.712 144.712 280.704 144.706C280.696 144.7 280.686 144.697 280.677 144.696C280.667 144.694 280.657 144.696 280.648 144.699C280.639 144.703 280.631 144.709 280.625 144.718L278.446 147.388L277.645 152.477L277.641 152.488C277.613 152.561 277.56 152.62 277.494 152.654C277.429 152.689 277.353 152.696 277.283 152.675L276.497 152.691L276.492 152.691L276.478 152.688Z" fill="#2F2E41"/>
<path d="M279.502 141.707L279.486 141.702L279.482 141.686C279.471 141.645 278.368 137.604 279.361 135.029L279.363 135.026C279.392 134.965 280.085 133.523 280.89 133.378L280.911 133.375L281.173 133.905C281.255 133.994 282.672 135.587 282.029 138.325C282.087 138.55 282.869 141.633 282.444 142.094C282.289 142.209 282.1 142.261 281.913 142.238C281.093 142.162 280.284 141.984 279.502 141.707Z" fill="#8BC83F"/>
<path d="M280.724 132.873C281.763 132.873 282.604 131.962 282.604 130.837C282.604 129.712 281.763 128.801 280.724 128.801C279.685 128.801 278.844 129.712 278.844 130.837C278.844 131.962 279.685 132.873 280.724 132.873Z" fill="#2F2E41"/>
<path d="M279.977 132.864C280.8 132.864 281.467 132.141 281.467 131.25C281.467 130.359 280.8 129.637 279.977 129.637C279.154 129.637 278.487 130.359 278.487 131.25C278.487 132.141 279.154 132.864 279.977 132.864Z" fill="#FFB8B8"/>
<path d="M280.936 132.817C280.8 132.87 280.633 132.916 280.526 132.807C280.482 132.745 280.456 132.669 280.451 132.591C280.447 132.512 280.465 132.434 280.502 132.366C280.579 132.233 280.642 132.091 280.688 131.942C280.702 131.83 280.689 131.716 280.651 131.612C280.612 131.507 280.549 131.415 280.467 131.344C280.306 131.211 280.123 131.111 279.928 131.05L278.885 130.649C278.614 130.58 278.373 130.411 278.204 130.171C278.117 129.971 278.102 129.744 278.162 129.533C278.222 129.322 278.353 129.143 278.529 129.031C278.706 128.934 278.901 128.882 279.099 128.877C279.298 128.873 279.494 128.917 279.675 129.006C279.874 129.107 280.078 129.195 280.286 129.271C280.703 129.39 281.178 129.283 281.545 129.538C281.7 129.666 281.823 129.833 281.902 130.025C281.982 130.217 282.016 130.427 282.002 130.637C281.97 131.059 281.866 131.471 281.695 131.852C281.615 132.087 281.5 132.305 281.355 132.499C281.283 132.594 281.192 132.668 281.088 132.717C280.985 132.765 280.872 132.786 280.759 132.777L280.936 132.817Z" fill="#2F2E41"/>
<path d="M282.301 131.165C282.971 131.165 283.514 130.577 283.514 129.852C283.514 129.126 282.971 128.538 282.301 128.538C281.631 128.538 281.088 129.126 281.088 129.852C281.088 130.577 281.631 131.165 282.301 131.165Z" fill="#2F2E41"/>
<path d="M280.299 131.757C280.299 131.733 280.305 131.709 280.317 131.689C280.328 131.669 280.344 131.652 280.364 131.641C280.383 131.629 280.405 131.624 280.427 131.625C280.449 131.627 280.47 131.634 280.488 131.648C280.507 131.661 280.521 131.679 280.531 131.701C280.54 131.722 280.544 131.746 280.541 131.77C280.539 131.794 280.531 131.816 280.518 131.836C280.504 131.855 280.487 131.869 280.466 131.878V132.167C280.466 132.174 280.465 132.18 280.463 132.186C280.461 132.192 280.457 132.198 280.453 132.202C280.449 132.207 280.444 132.211 280.438 132.213C280.433 132.216 280.427 132.217 280.421 132.217C280.415 132.217 280.409 132.216 280.403 132.213C280.398 132.211 280.393 132.207 280.388 132.202C280.384 132.198 280.381 132.192 280.379 132.186C280.376 132.18 280.375 132.174 280.375 132.167V131.878C280.353 131.869 280.334 131.852 280.32 131.83C280.307 131.808 280.299 131.783 280.299 131.757Z" fill="white"/>
<path d="M276.517 136.434C276.606 136.424 276.695 136.436 276.779 136.468C276.863 136.5 276.94 136.551 277.004 136.619C277.068 136.687 277.117 136.768 277.148 136.859C277.18 136.949 277.192 137.046 277.185 137.142L279.172 138.081L278.228 138.746L276.486 137.753C276.337 137.729 276.202 137.648 276.105 137.524C276.008 137.399 275.957 137.241 275.961 137.078C275.964 136.916 276.023 136.76 276.126 136.642C276.228 136.523 276.367 136.449 276.517 136.434Z" fill="#FFB8B8"/>
<path d="M279.953 139.624L277.52 138.517C277.486 138.502 277.456 138.479 277.43 138.451C277.405 138.423 277.385 138.39 277.371 138.353C277.358 138.316 277.351 138.277 277.352 138.237C277.353 138.198 277.361 138.159 277.376 138.123L277.606 137.571C277.633 137.505 277.682 137.453 277.742 137.423C277.803 137.393 277.871 137.389 277.935 137.409L279.876 138.052L279.969 135.195C279.972 135.082 279.997 134.971 280.042 134.869C280.087 134.767 280.15 134.677 280.229 134.602C280.307 134.528 280.399 134.472 280.498 134.438C280.597 134.403 280.702 134.392 280.806 134.403C280.969 134.42 281.122 134.493 281.244 134.613C281.365 134.732 281.447 134.891 281.478 135.065C281.693 136.261 281.168 138.168 280.836 139.198C280.79 139.339 280.706 139.461 280.594 139.547C280.482 139.633 280.348 139.68 280.21 139.68C280.122 139.68 280.034 139.661 279.953 139.624Z" fill="#8BC83F"/>
<path d="M30.4278 138.947H26.7008V137.722C27.8785 136.835 28.922 136.912 30.2947 137.794L30.4278 138.947Z" fill="#6C63FF"/>
<path d="M25.8378 160.711H25.0218L24.8998 157.303H25.8378V160.711Z" fill="#FFB8B8"/>
<path d="M26.0458 161.568L23.4149 161.568V161.532C23.4149 161.386 23.4414 161.242 23.4929 161.107C23.5443 160.973 23.6197 160.85 23.7148 160.747C23.8099 160.644 23.9228 160.563 24.0471 160.507C24.1713 160.451 24.3045 160.423 24.4389 160.423H24.439L26.0459 160.423L26.0458 161.568Z" fill="#2F2E41"/>
<path d="M30.4336 160.711H31.2493L31.3713 157.303H30.4332L30.4336 160.711Z" fill="#FFB8B8"/>
<path d="M30.2254 160.423L31.8322 160.423H31.8323C31.9668 160.423 32.0999 160.451 32.2242 160.507C32.3484 160.563 32.4613 160.644 32.5564 160.747C32.6515 160.85 32.7269 160.973 32.7784 161.107C32.8298 161.242 32.8563 161.386 32.8563 161.532V161.568L30.2254 161.568L30.2254 160.423Z" fill="#2F2E41"/>
<path d="M30.4549 160.274C30.3868 160.274 30.3209 160.249 30.2677 160.203C30.2146 160.157 30.1775 160.092 30.1625 160.02L28.1402 150.468C28.1357 150.443 28.1235 150.422 28.1057 150.406C28.0879 150.391 28.0656 150.382 28.0427 150.383H28.0422C28.0193 150.383 27.9969 150.391 27.9792 150.407C27.9614 150.422 27.9493 150.444 27.945 150.469L26.0879 159.957C26.0734 160.03 26.0365 160.095 25.9832 160.141C25.9299 160.188 25.8635 160.214 25.7949 160.214H24.9102C24.8694 160.214 24.829 160.205 24.7915 160.188C24.7541 160.17 24.7203 160.144 24.6923 160.112C24.6643 160.08 24.6427 160.042 24.6287 160.001C24.6148 159.959 24.6088 159.915 24.6113 159.871L25.2702 147.844L25.5353 147.76L25.5403 147.76L30.7487 147.809L31.8579 159.822C31.8618 159.865 31.8578 159.908 31.846 159.949C31.8343 159.99 31.8151 160.028 31.7896 160.061C31.7641 160.094 31.7328 160.122 31.6975 160.141C31.6622 160.161 31.6236 160.173 31.584 160.177L30.4789 160.273C30.4709 160.274 30.4629 160.274 30.4549 160.274Z" fill="#2F2E41"/>
<path d="M28.3041 136.752C29.2069 136.752 29.9387 135.959 29.9387 134.981C29.9387 134.004 29.2069 133.211 28.3041 133.211C27.4013 133.211 26.6695 134.004 26.6695 134.981C26.6695 135.959 27.4013 136.752 28.3041 136.752Z" fill="#FFB8B8"/>
<path d="M27.3027 149.163C27.0159 149.167 26.7303 149.123 26.4557 149.034C26.2114 148.954 25.9848 148.821 25.7897 148.643C25.5947 148.465 25.4354 148.245 25.3217 147.998C25.2857 147.923 25.2777 147.837 25.2994 147.756C25.4797 147.09 26.3509 143.626 25.795 140.873C25.7166 140.49 25.71 140.094 25.7758 139.709C25.8416 139.324 25.9784 138.957 26.178 138.63C26.373 138.306 26.6263 138.027 26.9227 137.812C27.2192 137.596 27.5528 137.447 27.9036 137.373V137.373C27.9958 137.354 28.0885 137.338 28.179 137.326C28.5668 137.274 28.9604 137.316 29.3315 137.448C29.7027 137.58 30.0422 137.8 30.3259 138.091C30.618 138.387 30.846 138.75 30.9934 139.153C31.1409 139.557 31.2042 139.99 31.1788 140.423L30.7517 147.847C30.7487 147.903 30.7325 147.956 30.7045 148.003C30.6765 148.05 30.6378 148.088 30.5921 148.114C30.1001 148.393 28.6221 149.163 27.3027 149.163Z" fill="#3F3D56"/>
<path d="M30.1507 133.678C29.9809 133.216 29.6699 132.831 29.2695 132.587C28.8692 132.343 28.4038 132.256 27.9509 132.339L28.4663 132.79C27.826 132.813 27.1519 132.763 26.6947 133.25C26.8403 133.245 27.031 133.582 27.1766 133.578C27.0404 133.588 26.9092 133.638 26.7968 133.722C26.6844 133.806 26.5948 133.921 26.5375 134.055C26.4262 134.327 26.4001 134.631 26.4633 134.92C26.6283 135.346 26.8201 135.758 27.0375 136.155C27.0185 135.451 28.2986 133.772 28.9237 133.947C28.6061 134.074 28.3305 134.301 28.1317 134.598C28.557 134.366 29.0379 134.28 29.5094 134.354C29.6171 134.381 29.7281 134.387 29.8379 134.374C29.9051 134.359 29.9679 134.327 30.02 134.278C30.0722 134.23 30.1122 134.169 30.136 134.099C30.1599 134.029 30.1668 133.954 30.1563 133.881C30.1457 133.807 30.1179 133.738 30.0756 133.68L30.1507 133.678Z" fill="#2F2E41"/>
<path d="M27.1901 148.717C27.1488 148.717 27.108 148.708 27.0702 148.69L23.9688 147.224C23.9029 147.193 23.8494 147.138 23.8182 147.068C23.787 146.998 23.7801 146.918 23.7988 146.843L25.852 138.444C25.8902 138.288 25.9567 138.141 26.0478 138.013C26.1389 137.885 26.2527 137.778 26.3824 137.698C26.5122 137.618 26.6554 137.567 26.8036 137.548C26.9519 137.528 27.1021 137.541 27.2457 137.586L28.0666 137.84L27.4887 148.412C27.4857 148.464 27.4712 148.514 27.4463 148.559C27.4215 148.604 27.387 148.642 27.3459 148.669C27.2991 148.7 27.2452 148.717 27.1901 148.717Z" fill="#1F4C6B"/>
<path d="M32.9302 146.843L32.7937 146.286L32.5961 145.476L32.5009 145.088L32.3033 144.28L30.877 138.444C30.839 138.287 30.7725 138.141 30.6814 138.013C30.5903 137.884 30.4766 137.777 30.3468 137.697C30.217 137.618 30.0737 137.566 29.9255 137.547C29.7772 137.528 29.6269 137.541 29.4834 137.586L28.6628 137.84L29.0694 145.276L29.1114 146.052L29.138 146.541V146.542L29.1805 147.314L29.2405 148.412C29.2454 148.494 29.2789 148.571 29.3344 148.628C29.3898 148.685 29.463 148.717 29.5393 148.717C29.5805 148.717 29.6213 148.708 29.6591 148.69L32.7605 147.224C32.8264 147.193 32.8799 147.138 32.9111 147.068C32.9423 146.998 32.949 146.918 32.9302 146.843Z" fill="#1F4C6B"/>
<path d="M32.5009 145.088L29.1112 146.052L29.0693 145.276L32.3032 144.279L32.5009 145.088Z" fill="#CCCCCC"/>
<path d="M32.7938 146.286L29.1805 147.314L29.1378 146.542V146.541L32.596 145.476L32.7938 146.286Z" fill="#CCCCCC"/>
<path d="M27.6181 145.443L27.5761 146.205L24.2517 145.133L24.4466 144.335L27.6181 145.443Z" fill="#CCCCCC"/>
<path d="M27.5488 146.706L24.1566 145.521L23.9614 146.32L27.5075 147.464L27.5488 146.706Z" fill="#CCCCCC"/>
<path d="M24.2156 147.503C24.3167 147.475 24.4108 147.422 24.4913 147.35C24.5718 147.278 24.6366 147.187 24.6813 147.085C24.726 146.983 24.7495 146.871 24.75 146.758C24.7505 146.645 24.7281 146.533 24.6843 146.43L26.2791 141.008L25.1483 140.751L23.6862 146.067C23.5316 146.158 23.4132 146.308 23.3534 146.487C23.2937 146.666 23.2967 146.863 23.362 147.04C23.4272 147.217 23.5502 147.362 23.7075 147.447C23.8648 147.533 24.0456 147.552 24.2156 147.503V147.503Z" fill="#FFB8B8"/>
<path d="M26.3234 138.343C26.6481 138.378 26.8307 138.774 26.75 139.266L26.3626 141.629C26.3335 141.806 26.1989 141.946 26.0871 141.916L24.7766 141.561C24.6758 141.534 24.6386 141.378 24.6958 141.223L25.4825 139.086C25.5357 138.884 25.6449 138.704 25.7952 138.571C25.9455 138.438 26.1299 138.359 26.3234 138.343Z" fill="#234F68"/>
<path d="M28.2981 131.668C28.8513 131.668 29.3828 131.901 29.78 132.318C30.1772 132.735 30.4089 133.303 30.4261 133.902H30.8271C30.8624 133.902 30.8962 133.917 30.9212 133.944C30.9462 133.971 30.9602 134.008 30.9602 134.046V134.623C30.9602 134.661 30.9462 134.698 30.9212 134.725C30.8962 134.752 30.8624 134.767 30.8271 134.767H26.3015C26.2662 134.767 26.2323 134.752 26.2073 134.725C26.1824 134.698 26.1684 134.661 26.1684 134.623V133.974C26.1683 133.671 26.2234 133.371 26.3305 133.092C26.4375 132.812 26.5944 132.558 26.7921 132.343C26.9899 132.129 27.2247 131.959 27.4831 131.843C27.7414 131.728 28.0184 131.668 28.2981 131.668Z" fill="#1F4C6B"/>
<path d="M28.5525 145.925H27.6118C27.5816 145.925 27.5524 145.913 27.5301 145.891C27.5077 145.869 27.4938 145.839 27.4909 145.806L27.3026 143.716H28.8617L28.6734 145.806C28.6706 145.839 28.6566 145.869 28.6342 145.891C28.6119 145.913 28.5827 145.925 28.5525 145.925Z" fill="#E6E6E6"/>
<path d="M28.8592 143.979H27.3051C27.2729 143.979 27.242 143.965 27.2193 143.94C27.1965 143.915 27.1837 143.882 27.1837 143.847V143.532C27.1837 143.497 27.1965 143.463 27.2193 143.439C27.242 143.414 27.2729 143.4 27.3051 143.4H28.8592C28.8914 143.4 28.9223 143.414 28.945 143.439C28.9678 143.463 28.9806 143.497 28.9806 143.532V143.847C28.9806 143.882 28.9678 143.915 28.945 143.94C28.9223 143.965 28.8914 143.979 28.8592 143.979Z" fill="#CCCCCC"/>
<path d="M28.1023 144.804C28.1389 144.808 28.1751 144.816 28.2106 144.827L30.7161 142.5L30.5696 141.646L31.7305 141.238L32.1254 142.722C32.1573 142.842 32.1524 142.97 32.1115 143.087C32.0706 143.203 31.9958 143.303 31.8985 143.369L28.7254 145.544C28.7276 145.697 28.6866 145.848 28.6079 145.976C28.5291 146.104 28.4163 146.203 28.2844 146.259C28.1525 146.316 28.0078 146.328 27.8696 146.293C27.7314 146.258 27.6061 146.179 27.5106 146.066C27.415 145.952 27.3536 145.81 27.3346 145.657C27.3155 145.505 27.3397 145.35 27.404 145.213C27.4682 145.076 27.5695 144.964 27.6942 144.891C27.819 144.817 27.9613 144.787 28.1024 144.804H28.1023Z" fill="#FFB8B8"/>
<path d="M30.7226 138.538C31.0694 138.433 31.416 138.718 31.5321 139.206L32.0894 141.543C32.1312 141.718 32.0501 141.904 31.9234 141.924L30.4388 142.155C30.3245 142.173 30.2239 142.046 30.2197 141.879L30.162 139.579C30.14 139.363 30.1826 139.146 30.2835 138.958C30.3844 138.771 30.5384 138.623 30.7226 138.538Z" fill="#1F4C6B"/>
<path d="M47.5976 144.861H46.4673C46.431 144.861 46.396 144.847 46.3691 144.82C46.3423 144.794 46.3255 144.758 46.3221 144.719L46.0958 142.207H47.969L47.7428 144.719C47.7394 144.758 47.7226 144.794 47.6957 144.82C47.6688 144.847 47.6338 144.861 47.5976 144.861Z" fill="#E6E6E6"/>
<path d="M47.966 142.523H46.0989C46.0602 142.523 46.0231 142.506 45.9958 142.477C45.9684 142.447 45.953 142.407 45.953 142.365V141.986C45.953 141.944 45.9684 141.904 45.9958 141.874C46.0231 141.845 46.0602 141.828 46.0989 141.828H47.966C48.0047 141.828 48.0418 141.845 48.0691 141.874C48.0965 141.904 48.1118 141.944 48.1119 141.986V142.365C48.1118 142.407 48.0965 142.447 48.0691 142.477C48.0418 142.506 48.0047 142.523 47.966 142.523Z" fill="#CCCCCC"/>
<path d="M58.7022 159.61C57.8809 158.427 57.2317 157.114 56.7771 155.719C56.7508 155.635 56.7526 155.544 56.7824 155.462C56.8121 155.38 56.8678 155.312 56.9396 155.27L59.7498 153.639C59.7952 153.613 59.8457 153.598 59.8973 153.596C59.9489 153.593 60.0004 153.604 60.0477 153.626C60.0958 153.649 60.1386 153.683 60.1727 153.727C60.2068 153.77 60.2314 153.821 60.2445 153.876C60.5716 155.221 61.1864 156.464 62.0392 157.504C62.0743 157.546 62.1001 157.596 62.1144 157.651C62.1288 157.706 62.1315 157.763 62.1222 157.819C62.1133 157.875 62.0929 157.927 62.0626 157.972C62.0323 158.017 61.9928 158.054 61.9472 158.081L59.137 159.711C59.0651 159.753 58.9819 159.765 58.9023 159.747C58.8227 159.728 58.7518 159.68 58.7022 159.61Z" fill="#CCCCCC"/>
<path d="M58.8939 159.453C58.9091 159.474 58.9303 159.488 58.954 159.493C58.9776 159.499 59.0023 159.495 59.0236 159.482L61.8339 157.852C61.8475 157.844 61.8593 157.833 61.8684 157.82C61.8774 157.806 61.8835 157.79 61.886 157.774C61.889 157.757 61.8882 157.739 61.8836 157.722C61.8791 157.705 61.8711 157.689 61.8601 157.676C60.9821 156.606 60.3492 155.327 60.0124 153.942C60.0085 153.925 60.001 153.909 59.9905 153.896C59.98 153.882 59.9668 153.871 59.9518 153.865C59.9377 153.858 59.9224 153.855 59.907 153.855C59.8916 153.856 59.8765 153.86 59.863 153.868L57.0529 155.499C57.0316 155.512 57.015 155.532 57.0059 155.556C56.9969 155.58 56.996 155.607 57.0033 155.632C57.4498 157.003 58.0874 158.292 58.8939 159.453Z" fill="white"/>
<path d="M59.9343 155.967L58.4037 156.698C58.3455 156.726 58.2795 156.728 58.2202 156.703C58.1609 156.678 58.1131 156.629 58.0874 156.566L58.0495 156.473C58.0239 156.41 58.0224 156.338 58.0454 156.274C58.0684 156.21 58.114 156.158 58.1721 156.13L59.7027 155.398C59.7609 155.371 59.8269 155.369 59.8862 155.394C59.9455 155.419 59.9932 155.468 60.019 155.531L60.0568 155.624C60.0825 155.687 60.0839 155.759 60.061 155.823C60.038 155.887 59.9924 155.939 59.9343 155.967Z" fill="#CCCCCC"/>
<path d="M60.494 157.092L58.9634 157.824C58.9052 157.852 58.8392 157.853 58.7799 157.829C58.7206 157.804 58.6728 157.754 58.6471 157.691L58.6092 157.599C58.5836 157.535 58.5821 157.464 58.6051 157.4C58.6281 157.336 58.6737 157.284 58.7318 157.256L60.2624 156.524C60.3206 156.496 60.3866 156.495 60.4459 156.52C60.5052 156.545 60.5529 156.594 60.5787 156.657L60.6166 156.75C60.6422 156.813 60.6437 156.884 60.6207 156.949C60.5977 157.013 60.5521 157.065 60.494 157.092Z" fill="#CCCCCC"/>
<path d="M56.9043 156.154C56.7987 156.081 56.7093 155.983 56.6423 155.868C56.5754 155.753 56.5325 155.623 56.5168 155.488C56.5011 155.353 56.5129 155.216 56.5513 155.087C56.5898 154.958 56.654 154.839 56.7394 154.739L56.0939 144.819L57.9532 145.014L58.0043 154.729C58.1494 154.896 58.2331 155.114 58.2395 155.343C58.2458 155.572 58.1745 155.795 58.0389 155.971C57.9033 156.147 57.7129 156.262 57.5038 156.296C57.2947 156.33 57.0814 156.279 56.9043 156.154Z" fill="#A0616A"/>
<path d="M56.5148 148.152C56.4713 148.118 56.4353 148.074 56.4096 148.023C56.3839 147.972 56.3691 147.916 56.3662 147.858L56.23 145.184C56.2165 144.919 56.2941 144.658 56.4477 144.452C56.6013 144.245 56.8202 144.107 57.062 144.065C57.3038 144.023 57.5516 144.079 57.7574 144.223C57.9632 144.367 58.1126 144.588 58.1767 144.844L58.7752 147.235C58.8 147.334 58.7874 147.441 58.7399 147.53C58.6924 147.62 58.6141 147.686 58.5221 147.713L56.8197 148.213C56.7679 148.228 56.7137 148.23 56.6609 148.22C56.6082 148.21 56.5583 148.186 56.5148 148.152Z" fill="#3F3D56"/>
<path d="M53.3457 168.35L52.3657 168.35L51.8992 164.255H53.3461L53.3457 168.35Z" fill="#A0616A"/>
<path d="M51.4465 168.047H53.556V169.336H50.475V169.099C50.475 168.961 50.5002 168.824 50.549 168.696C50.5978 168.569 50.6694 168.453 50.7596 168.355C50.8498 168.257 50.9569 168.18 51.0747 168.127C51.1926 168.074 51.3189 168.047 51.4465 168.047Z" fill="#2F2E41"/>
<path d="M57.0239 168.35L56.0439 168.35L55.5774 164.255H57.0243L57.0239 168.35Z" fill="#A0616A"/>
<path d="M55.1246 168.047H57.2341V169.336H54.1532V169.099C54.1532 168.961 54.1783 168.824 54.2271 168.696C54.276 168.569 54.3475 168.453 54.4377 168.355C54.5279 168.257 54.635 168.18 54.7529 168.127C54.8707 168.074 54.9971 168.047 55.1246 168.047Z" fill="#2F2E41"/>
<path d="M53.2996 166.287L52.2204 166.231C52.1285 166.227 52.0417 166.184 51.978 166.112C51.9143 166.04 51.8784 165.945 51.8777 165.845C51.5932 161.089 51.1992 155.99 51.8024 154.02C51.8021 153.964 51.8129 153.908 51.8342 153.857C51.8555 153.806 51.8868 153.76 51.9259 153.724C51.9649 153.687 52.0109 153.659 52.0606 153.643C52.1103 153.628 52.1626 153.624 52.2139 153.632L56.5312 154.31C56.6165 154.323 56.6947 154.369 56.7513 154.439C56.8079 154.51 56.8392 154.6 56.8394 154.693C57.3906 157.026 57.4155 161.255 57.3946 165.65C57.395 165.702 57.3859 165.753 57.368 165.8C57.3501 165.848 57.3237 165.891 57.2902 165.928C57.2568 165.964 57.217 165.993 57.1731 166.013C57.1293 166.033 57.0823 166.043 57.0348 166.043H55.8714C55.7856 166.043 55.7025 166.01 55.6372 165.95C55.572 165.889 55.5289 165.806 55.5159 165.714L54.7981 160.772C54.7877 160.7 54.7534 160.634 54.7016 160.587C54.6498 160.54 54.5841 160.515 54.5165 160.516C54.4489 160.517 54.3841 160.545 54.334 160.594C54.2839 160.643 54.2518 160.71 54.2438 160.783L53.674 165.944C53.6633 166.039 53.621 166.126 53.5553 166.189C53.4895 166.252 53.4046 166.287 53.3167 166.288C53.311 166.288 53.3053 166.288 53.2996 166.287Z" fill="#2F2E41"/>
<path d="M54.0593 154.694C53.4291 154.293 52.7307 154.034 52.0059 153.932C51.9583 153.927 51.9121 153.912 51.8701 153.887C51.8281 153.862 51.7913 153.828 51.7618 153.787C51.7316 153.746 51.7094 153.699 51.6966 153.648C51.6838 153.598 51.6807 153.545 51.6873 153.493L52.7218 145.175C52.7813 144.689 52.9549 144.227 53.2259 143.833C53.4969 143.44 53.8564 143.128 54.2701 142.927C54.6706 142.728 55.1115 142.643 55.5509 142.68C55.9903 142.718 56.4136 142.876 56.7805 143.141C56.8159 143.166 56.8507 143.192 56.8848 143.219C57.3074 143.554 57.6288 144.017 57.8086 144.55C57.9884 145.083 58.0185 145.661 57.8952 146.213C57.2609 149.023 57.043 153.63 57.0057 154.526C57.0028 154.602 56.9791 154.675 56.9376 154.737C56.896 154.799 56.8386 154.846 56.7724 154.872C56.3821 155.026 55.9702 155.105 55.555 155.107C55.0319 155.111 54.5168 154.968 54.0593 154.694Z" fill="#3F3D56"/>
<path d="M54.9246 141.798C56.0092 141.798 56.8885 140.846 56.8885 139.671C56.8885 138.497 56.0092 137.544 54.9246 137.544C53.84 137.544 52.9607 138.497 52.9607 139.671C52.9607 140.846 53.84 141.798 54.9246 141.798Z" fill="#A0616A"/>
<path d="M56.3143 141.354C56.2322 141.45 56.1265 141.518 56.0097 141.551C55.8929 141.584 55.7698 141.581 55.6548 141.541C55.5399 141.501 55.4379 141.426 55.3608 141.325C55.2838 141.224 55.2348 141.102 55.2198 140.972C55.2161 140.927 55.2163 140.882 55.2206 140.837C55.2922 140.592 55.3353 140.337 55.349 140.079C55.3416 140.012 55.3185 139.948 55.2819 139.893C54.9899 139.47 54.3046 140.083 54.029 139.699C53.8601 139.464 54.0587 139.094 53.929 138.832C53.7579 138.485 53.2511 138.656 52.9332 138.466C52.5796 138.255 52.6007 137.667 52.8335 137.31C52.985 137.099 53.1777 136.926 53.3978 136.805C53.6178 136.684 53.8599 136.616 54.1068 136.608C54.601 136.595 55.0918 136.699 55.5454 136.912C56.0811 137.101 56.5538 137.456 56.9048 137.933C57.0864 138.246 57.2015 138.598 57.2417 138.965C57.2819 139.332 57.2463 139.704 57.1374 140.054C56.9453 140.542 56.6655 140.984 56.3143 141.354Z" fill="#2F2E41"/>
<path d="M57.8696 143.422C57.8352 143.247 57.5402 143.008 57.118 142.813C56.4394 142.515 55.7054 142.395 54.9759 142.463C54.2465 142.531 53.5421 142.784 52.9201 143.203C52.8767 143.205 52.8353 143.223 52.8022 143.254C52.7691 143.284 52.7462 143.325 52.737 143.371L51.3169 150.173L51.1322 151.059L51.0099 151.645L50.8251 152.529L50.7268 153.001C50.7205 153.031 50.7202 153.062 50.726 153.092C50.7318 153.123 50.7435 153.151 50.7603 153.176C50.7771 153.201 50.7986 153.222 50.8235 153.237C50.8483 153.253 50.8759 153.262 50.9043 153.265L57.0364 153.838C57.042 153.838 57.0484 153.839 57.054 153.839C57.1046 153.839 57.1532 153.818 57.19 153.78C57.2268 153.742 57.2491 153.691 57.2523 153.636L57.3107 152.674L57.3731 151.645L57.4002 151.2L57.4618 150.173L57.8704 143.433V143.427L57.8696 143.422Z" fill="#1F4C6B"/>
<path d="M47.8079 143.85C47.8177 143.897 47.8241 143.944 47.827 143.992L51.2619 146.138L52.0968 145.617L52.9868 146.879L51.2007 148.258L47.2821 144.91C47.1222 144.974 46.9482 144.984 46.7831 144.938C46.618 144.892 46.4696 144.793 46.3577 144.654C46.2459 144.515 46.1758 144.342 46.1568 144.159C46.1378 143.975 46.1708 143.79 46.2515 143.627C46.3321 143.465 46.4566 143.333 46.6083 143.248C46.7599 143.164 46.9317 143.132 47.1006 143.156C47.2696 143.181 47.4277 143.26 47.5541 143.384C47.6804 143.508 47.7689 143.67 47.8079 143.85V143.85Z" fill="#A0616A"/>
<path d="M51.3846 145.955C51.3788 145.898 51.3851 145.839 51.403 145.784C51.4209 145.73 51.45 145.68 51.488 145.639L53.2361 143.745C53.4094 143.558 53.6406 143.446 53.8852 143.432C54.1298 143.418 54.3706 143.503 54.561 143.67C54.7514 143.837 54.878 144.074 54.9163 144.336C54.9547 144.598 54.9022 144.866 54.7688 145.089L53.5238 147.167C53.4718 147.253 53.3902 147.314 53.2969 147.335C53.2036 147.357 53.1062 147.337 53.0261 147.281L51.5465 146.241C51.5015 146.21 51.4636 146.168 51.4355 146.118C51.4075 146.069 51.3901 146.013 51.3846 145.955Z" fill="#1F4C6B"/>
<path d="M57.4617 150.173L57.4004 151.2L51.132 151.059L51.3168 150.173H57.4617Z" fill="#CCCCCC"/>
<path d="M57.3731 151.645L57.3107 152.674L50.8252 152.529L51.01 151.645H57.3731Z" fill="#CCCCCC"/>
<path d="M54.963 135.539C54.2984 135.539 53.6598 135.819 53.1826 136.32C52.7054 136.821 52.427 137.504 52.4064 138.223H51.9246C51.8822 138.223 51.8415 138.242 51.8115 138.274C51.7815 138.307 51.7646 138.351 51.7646 138.397V139.089C51.7646 139.135 51.7815 139.179 51.8115 139.212C51.8415 139.244 51.8822 139.262 51.9246 139.262H57.3618C57.4042 139.262 57.4449 139.244 57.4749 139.212C57.5049 139.179 57.5218 139.135 57.5218 139.089V138.31C57.5218 137.946 57.4556 137.586 57.327 137.25C57.1984 136.913 57.0099 136.608 56.7723 136.351C56.5347 136.093 56.2527 135.889 55.9422 135.75C55.6318 135.611 55.2991 135.539 54.963 135.539Z" fill="#1F4C6B"/>
<path d="M69.3638 163.73H68.8153C68.8118 163.658 68.0756 161.787 68.0756 161.787L67.6305 160.621L67.3363 159.844L66.8913 158.678L66.3817 157.337C66.3687 157.277 66.3371 157.223 66.2922 157.184C66.2472 157.145 66.1915 157.124 66.1341 157.124C66.0767 157.124 66.021 157.145 65.9761 157.184C65.9311 157.223 65.8996 157.277 65.8865 157.337L65.377 158.678L64.932 159.844L64.6378 160.621L64.1927 161.787C64.1927 161.787 63.4564 163.658 63.4529 163.73H62.9045C62.7617 163.73 62.6248 163.791 62.5239 163.901C62.4229 164.01 62.3662 164.158 62.3662 164.313C62.3662 164.468 62.4229 164.616 62.5239 164.725C62.6248 164.834 62.7617 164.896 62.9045 164.896H69.3638C69.5065 164.896 69.6434 164.834 69.7444 164.725C69.8453 164.616 69.902 164.468 69.902 164.313C69.902 164.158 69.8453 164.01 69.7444 163.901C69.6434 163.791 69.5065 163.73 69.3638 163.73Z" fill="#FF6584"/>
<path d="M69.0049 173.834H68.7924C68.8118 173.784 67.8674 171.168 67.8674 171.168L67.3004 169.672L66.92 168.669L66.353 167.173L65.7359 165.553C65.7185 165.476 65.6779 165.408 65.6207 165.359C65.5634 165.311 65.4928 165.284 65.42 165.284C65.3473 165.284 65.2766 165.311 65.2194 165.359C65.1621 165.408 65.1216 165.476 65.1042 165.553L64.4871 167.173L63.9201 168.669L63.536 169.672L62.9691 171.168C62.9691 171.168 62.0282 173.784 62.0477 173.834H61.8279C61.6852 173.834 61.5483 173.896 61.4473 174.005C61.3464 174.114 61.2897 174.262 61.2897 174.417C61.2897 174.572 61.3464 174.72 61.4473 174.829C61.5483 174.939 61.6852 175 61.8279 175H69.0049C69.1477 175 69.2846 174.939 69.3855 174.829C69.4865 174.72 69.5432 174.572 69.5432 174.417C69.5432 174.262 69.4865 174.114 69.3855 174.005C69.2846 173.896 69.1477 173.834 69.0049 173.834Z" fill="#FF6584"/>
<path d="M67.3362 159.844H64.9319L65.3769 158.678H66.8912L67.3362 159.844Z" fill="#F2F2F2"/>
<path d="M68.0754 161.787H64.1926L64.6376 160.621H67.6304L68.0754 161.787Z" fill="#F2F2F2"/>
<path d="M66.9199 168.669H63.9199L64.4869 167.173H66.3529L66.9199 168.669Z" fill="#F2F2F2"/>
<path d="M67.8673 171.168H62.969L63.536 169.672H67.3003L67.8673 171.168Z" fill="#F2F2F2"/>
<path d="M148.197 141.48C148.253 141.42 148.296 141.349 148.323 141.269C148.35 141.19 148.36 141.106 148.354 141.022C148.347 140.937 148.324 140.856 148.285 140.783C148.247 140.709 148.194 140.646 148.13 140.598L147.861 138.675L146.755 139.052L147.361 140.767C147.292 140.888 147.267 141.033 147.29 141.173C147.314 141.312 147.384 141.438 147.487 141.526C147.59 141.614 147.719 141.658 147.85 141.649C147.981 141.641 148.105 141.58 148.197 141.48Z" fill="#FFB8B8"/>
<path d="M147.058 140.576L146.376 137.125C146.309 136.795 146.322 136.451 146.414 136.128C146.505 135.804 146.671 135.512 146.897 135.278C147.77 134.366 148.892 133.218 149.28 132.921C149.644 132.64 150.084 132.499 150.53 132.521L150.54 132.522L151.127 133.123L149.848 135.402L147.908 136.718L148.124 140.1L147.058 140.576Z" fill="#8BC83F"/>
<path d="M149.447 135.887H146.584C146.46 135.887 146.36 135.996 146.36 136.13C146.36 136.264 146.46 136.373 146.584 136.373H149.447C149.571 136.373 149.672 136.264 149.672 136.13C149.672 135.996 149.571 135.887 149.447 135.887Z" fill="#CCCCCC"/>
<path d="M149.447 141.176H146.584C146.46 141.176 146.36 141.285 146.36 141.419C146.36 141.553 146.46 141.662 146.584 141.662H149.447C149.571 141.662 149.672 141.553 149.672 141.419C149.672 141.285 149.571 141.176 149.447 141.176Z" fill="#CCCCCC"/>
<path d="M148.044 154.428C148.016 154.428 147.989 154.416 147.968 154.396C147.947 154.375 147.935 154.347 147.932 154.317L146.501 136.141C146.5 136.125 146.501 136.109 146.506 136.094C146.51 136.078 146.517 136.064 146.526 136.052C146.536 136.04 146.548 136.029 146.561 136.022C146.574 136.015 146.588 136.01 146.603 136.009C146.617 136.007 146.632 136.009 146.646 136.014C146.66 136.019 146.674 136.026 146.685 136.037C146.696 136.047 146.706 136.06 146.712 136.074C146.719 136.088 146.723 136.103 146.725 136.119L148.042 152.913L149.323 136.12C149.324 136.104 149.328 136.088 149.335 136.074C149.341 136.06 149.351 136.047 149.362 136.037C149.373 136.026 149.386 136.019 149.4 136.014C149.414 136.009 149.429 136.007 149.444 136.009C149.459 136.01 149.473 136.014 149.486 136.022C149.499 136.029 149.511 136.039 149.52 136.052C149.53 136.064 149.537 136.078 149.542 136.093C149.546 136.109 149.548 136.125 149.546 136.141L148.156 154.317C148.153 154.347 148.141 154.375 148.12 154.396C148.099 154.416 148.072 154.428 148.044 154.428L148.044 154.428Z" fill="#CCCCCC"/>
<path d="M151.257 131.793C152.07 131.793 152.729 131.079 152.729 130.198C152.729 129.318 152.07 128.603 151.257 128.603C150.443 128.603 149.784 129.318 149.784 130.198C149.784 131.079 150.443 131.793 151.257 131.793Z" fill="#FFB8B8"/>
<path d="M146.867 153.699L146.167 153.457L146.694 150.416L147.728 150.773L146.867 153.699Z" fill="#FFB8B8"/>
<path d="M146.828 154.372L144.573 153.593L144.592 153.53C144.664 153.287 144.821 153.085 145.03 152.968C145.239 152.851 145.483 152.829 145.707 152.906L147.116 153.393L146.828 154.372Z" fill="#2F2E41"/>
<path d="M151.963 153.683H151.228L150.878 150.612H151.963V153.683Z" fill="#FFB8B8"/>
<path d="M149.838 154.392H152.093V153.486H150.67C150.449 153.486 150.238 153.581 150.082 153.75C149.926 153.919 149.839 154.148 149.838 154.386V154.392Z" fill="#2F2E41"/>
<path d="M151.942 152.686L151.694 152.646C151.382 152.626 151.074 152.564 150.777 152.461C150.716 152.432 150.711 151.993 150.748 149.527C150.775 147.717 150.808 145.465 150.743 144.256C150.741 144.208 150.723 144.162 150.694 144.127C150.664 144.091 150.625 144.067 150.581 144.059C150.538 144.051 150.493 144.058 150.454 144.081C150.415 144.104 150.385 144.14 150.367 144.184C149.807 145.584 148.868 148.718 148.246 150.792C148.03 151.513 147.859 152.083 147.751 152.425C147.73 152.489 147.688 152.543 147.632 152.576C147.576 152.608 147.512 152.617 147.45 152.601C146.939 152.462 146.973 152.403 146.244 152.199C146.181 152.182 146.127 152.139 146.093 152.079C146.058 152.019 146.047 151.947 146.06 151.878C146.192 151.205 148.604 140.292 148.788 139.254C148.795 139.219 148.807 139.185 148.826 139.155C148.844 139.125 148.868 139.099 148.895 139.078C148.923 139.058 148.954 139.044 148.987 139.037C149.02 139.03 149.053 139.03 149.086 139.037C149.629 139.156 149.959 139.281 150.496 139.403C151.075 139.534 151.674 139.67 152.258 139.796C152.316 139.809 152.368 139.843 152.405 139.894C152.568 140.082 152.768 140.228 152.991 140.32C153.144 140.399 152.797 140.392 152.93 140.506C153.47 140.969 152.694 150.359 152.225 152.48C152.21 152.547 152.173 152.605 152.12 152.643C152.068 152.681 152.004 152.697 151.942 152.686V152.686Z" fill="#2F2E41"/>
<path d="M151.884 131.594C151.798 131.199 152.233 130.349 152.147 129.954C152.089 129.686 151.508 129.868 151.372 129.636C151.309 129.516 151.22 129.414 151.113 129.341C151.005 129.267 150.883 129.222 150.756 129.212C150.464 129.208 150.177 129.443 149.9 129.341C149.835 129.306 149.777 129.257 149.729 129.198C149.681 129.138 149.645 129.068 149.622 128.993C149.599 128.918 149.59 128.839 149.596 128.76C149.602 128.681 149.622 128.605 149.655 128.534C149.803 128.255 150.033 128.037 150.308 127.914C150.741 127.628 151.26 127.533 151.756 127.651C152.04 127.77 152.3 127.947 152.523 128.172C152.746 128.351 152.941 128.566 153.103 128.81C153.24 129.065 153.315 129.353 153.319 129.648C153.323 129.942 153.258 130.233 153.128 130.492C152.86 131.009 152.432 131.408 151.92 131.618" fill="#2F2E41"/>
<path d="M148.268 140.79C148.427 140.502 148.668 139.155 148.966 136.893C149.168 135.349 149.345 133.78 149.433 132.979C149.439 132.914 149.461 132.852 149.496 132.799C149.531 132.745 149.578 132.703 149.632 132.675C149.689 132.645 149.746 132.617 149.802 132.59C150.476 132.256 151.225 132.138 151.96 132.249C152.694 132.361 153.384 132.698 153.947 133.221L153.953 133.228L153.955 133.237C153.958 133.255 154.263 135.03 153.639 136.23C153.025 137.413 153.018 140.548 153.018 140.579V140.619L152.982 140.608C152.026 140.313 148.333 140.83 148.296 140.835L148.238 140.844L148.268 140.79Z" fill="#8BC83F"/>
<path d="M153.826 136.677H150.963C150.839 136.677 150.738 136.786 150.738 136.92C150.738 137.055 150.839 137.164 150.963 137.164H153.826C153.95 137.164 154.05 137.055 154.05 136.92C154.05 136.786 153.95 136.677 153.826 136.677Z" fill="#CCCCCC"/>
<path d="M153.826 141.966H150.963C150.839 141.966 150.738 142.075 150.738 142.209C150.738 142.343 150.839 142.452 150.963 142.452H153.826C153.95 142.452 154.05 142.343 154.05 142.209C154.05 142.075 153.95 141.966 153.826 141.966Z" fill="#CCCCCC"/>
<path d="M152.422 154.489C152.394 154.489 152.367 154.477 152.346 154.457C152.326 154.436 152.313 154.408 152.31 154.378L150.879 136.931C150.877 136.899 150.886 136.867 150.905 136.842C150.924 136.818 150.951 136.802 150.981 136.799C151.011 136.796 151.04 136.806 151.063 136.827C151.086 136.848 151.1 136.877 151.103 136.91L152.421 152.973L153.701 136.91C153.702 136.894 153.706 136.878 153.713 136.864C153.72 136.85 153.729 136.837 153.74 136.827C153.752 136.817 153.765 136.809 153.779 136.804C153.793 136.799 153.808 136.797 153.822 136.799C153.837 136.8 153.851 136.805 153.865 136.812C153.878 136.819 153.889 136.829 153.899 136.842C153.908 136.854 153.915 136.868 153.92 136.883C153.924 136.899 153.926 136.915 153.925 136.931L152.534 154.377C152.532 154.408 152.519 154.436 152.498 154.456C152.477 154.477 152.45 154.489 152.422 154.489L152.422 154.489Z" fill="#CCCCCC"/>
<path d="M151.498 142.043C151.481 141.96 151.481 141.875 151.498 141.793C151.515 141.71 151.549 141.633 151.596 141.566C151.644 141.499 151.705 141.445 151.774 141.406C151.843 141.367 151.919 141.345 151.997 141.342L153.188 139.887L153.927 140.854L152.558 141.937C152.554 142.079 152.503 142.215 152.413 142.319C152.324 142.422 152.202 142.487 152.071 142.5C151.941 142.513 151.81 142.474 151.704 142.389C151.599 142.305 151.525 142.182 151.498 142.043H151.498Z" fill="#FFB8B8"/>
<path d="M152.191 141.03L154.069 138.318L153.101 136.071L153.171 133.406L153.965 133.247L153.973 133.251C154.359 133.496 154.658 133.873 154.822 134.323C154.999 134.8 155.365 136.425 155.64 137.704C155.712 138.033 155.705 138.376 155.62 138.702C155.534 139.027 155.372 139.323 155.151 139.561L152.847 142.056L152.191 141.03Z" fill="#8BC83F"/>
<path d="M144.318 153.734L146.888 154.404C146.938 154.419 146.99 154.414 147.037 154.39C147.084 154.366 147.122 154.326 147.143 154.275L149.351 147.92C149.36 147.896 149.365 147.869 149.365 147.843C149.365 147.816 149.36 147.79 149.351 147.765C149.34 147.738 149.323 147.713 149.303 147.693C149.283 147.672 149.259 147.656 149.233 147.646L147.301 146.847C147.271 146.835 147.238 146.829 147.206 146.831C147.173 146.833 147.141 146.842 147.112 146.859C147.087 146.872 147.064 146.891 147.047 146.915C147.029 146.938 147.016 146.966 147.009 146.995L147.009 146.996L145.645 152.597L145.625 152.598C145.202 152.625 144.799 152.807 144.484 153.113C144.418 153.199 144.37 153.298 144.341 153.405C144.313 153.512 144.305 153.624 144.318 153.734Z" fill="#CCCCCC"/>
<path d="M146.179 150.172L146.167 150.293L148.51 150.562L148.522 150.441L146.179 150.172Z" fill="#B3B3B3"/>
<path d="M145.975 151.174L145.929 151.285L147.814 152.203L147.86 152.092L145.975 151.174Z" fill="#B3B3B3"/>
<path d="M148.768 149.589L146.546 148.792L146.593 148.681L148.814 149.478L148.768 149.589Z" fill="#B3B3B3"/>
<path d="M148.993 149.042L146.771 147.88L146.817 147.769L149.039 148.931L148.993 149.042Z" fill="#B3B3B3"/>
<path d="M145.779 152.126L145.706 152.218L147.308 153.7L147.381 153.608L145.779 152.126Z" fill="#B3B3B3"/>
<path d="M145.324 152.617L145.222 152.667L145.865 154.203L145.967 154.153L145.324 152.617Z" fill="#B3B3B3"/>
<path d="M207.943 141.989C207.847 141.965 207.758 141.919 207.681 141.853C207.604 141.788 207.542 141.705 207.497 141.611C207.453 141.516 207.429 141.413 207.426 141.307C207.422 141.201 207.441 141.096 207.479 140.998L205.015 134.968L206.425 134.584L208.404 140.632C208.551 140.713 208.665 140.849 208.725 141.015C208.785 141.181 208.787 141.365 208.73 141.532C208.673 141.7 208.561 141.838 208.416 141.923C208.271 142.007 208.103 142.03 207.943 141.989Z" fill="#A0616A"/>
<path d="M205.472 136.858C205.433 136.839 205.398 136.811 205.369 136.776C205.341 136.74 205.32 136.699 205.307 136.654L204.877 135.093C204.782 134.877 204.771 134.629 204.846 134.404C204.921 134.179 205.075 133.995 205.274 133.893C205.474 133.791 205.703 133.779 205.911 133.86C206.119 133.941 206.288 134.108 206.382 134.324L207.216 135.687C207.24 135.726 207.255 135.77 207.262 135.816C207.269 135.862 207.266 135.909 207.254 135.954C207.243 135.999 207.222 136.041 207.194 136.076C207.167 136.112 207.132 136.141 207.093 136.16L205.722 136.855C205.683 136.875 205.64 136.886 205.597 136.886C205.554 136.886 205.511 136.877 205.472 136.858Z" fill="#6C63FF"/>
<path d="M210.489 136.08L208.977 137.239C208.958 137.254 208.935 137.262 208.911 137.262C208.887 137.262 208.864 137.254 208.844 137.239L208.436 136.907C208.422 136.896 208.411 136.882 208.403 136.866C208.395 136.85 208.391 136.832 208.39 136.814C208.389 136.796 208.392 136.778 208.399 136.761C208.406 136.744 208.416 136.729 208.428 136.717L209.592 135.594C209.607 135.579 209.626 135.57 209.646 135.565C209.665 135.561 209.686 135.563 209.705 135.57L210.462 135.863C210.482 135.871 210.499 135.885 210.512 135.902C210.525 135.92 210.533 135.941 210.536 135.963C210.539 135.985 210.536 136.008 210.528 136.028C210.519 136.049 210.506 136.067 210.489 136.08Z" fill="#3F3D56"/>
<path d="M210.366 135.97C210.37 135.959 210.37 135.947 210.365 135.937C210.361 135.926 210.353 135.918 210.343 135.914L209.661 135.65C209.654 135.647 209.647 135.646 209.64 135.648C209.633 135.649 209.626 135.653 209.62 135.658L208.571 136.671L208.565 136.678C208.562 136.682 208.56 136.687 208.559 136.693C208.558 136.698 208.558 136.704 208.559 136.709C208.559 136.715 208.561 136.72 208.564 136.725C208.567 136.73 208.57 136.734 208.574 136.737L208.942 137.036C208.949 137.041 208.957 137.044 208.966 137.044C208.974 137.044 208.983 137.041 208.989 137.035L210.352 135.991C210.358 135.985 210.363 135.978 210.366 135.97Z" fill="white"/>
<path d="M204.979 153.361H205.742L206.105 150.174H204.979V153.361Z" fill="#A0616A"/>
<path d="M204.785 153.091L206.287 153.091H206.287C206.413 153.091 206.538 153.118 206.654 153.17C206.77 153.222 206.876 153.299 206.965 153.395C207.053 153.491 207.124 153.606 207.172 153.731C207.22 153.857 207.245 153.992 207.245 154.128V154.162L204.785 154.162L204.785 153.091Z" fill="#2F2E41"/>
<path d="M202.428 153.361H203.191L203.554 150.174H202.428V153.361Z" fill="#A0616A"/>
<path d="M202.233 153.091L203.736 153.091H203.736C203.862 153.091 203.986 153.118 204.102 153.17C204.218 153.222 204.324 153.299 204.413 153.395C204.502 153.491 204.572 153.606 204.62 153.731C204.669 153.857 204.693 153.992 204.693 154.128V154.162L202.233 154.162L202.233 153.091Z" fill="#2F2E41"/>
<path d="M202.266 152.387C202.214 152.322 202.184 152.24 202.183 152.153C202.001 150.127 202.496 139.475 203.64 138.565L203.647 138.557L206.994 137.932L207.056 137.999C207.061 138.093 207.669 147.43 205.989 152.196C205.968 152.253 205.932 152.301 205.886 152.336C205.839 152.37 205.784 152.389 205.728 152.389H205.06C205.021 152.389 204.983 152.38 204.948 152.363C204.912 152.346 204.88 152.322 204.854 152.291C204.828 152.26 204.808 152.224 204.795 152.185C204.783 152.145 204.778 152.103 204.781 152.062L205.322 143.139C205.323 143.113 205.316 143.088 205.302 143.068C205.287 143.047 205.266 143.034 205.242 143.03C205.219 143.027 205.195 143.033 205.175 143.047C205.156 143.062 205.142 143.084 205.137 143.109L203.614 152.165C203.601 152.229 203.569 152.287 203.524 152.33C203.478 152.372 203.421 152.398 203.361 152.403L202.483 152.474C202.477 152.474 202.47 152.475 202.463 152.475C202.389 152.475 202.318 152.443 202.266 152.387Z" fill="#2F2E41"/>
<path d="M206.67 132.469C207.514 132.469 208.198 131.728 208.198 130.814C208.198 129.9 207.514 129.159 206.67 129.159C205.826 129.159 205.141 129.9 205.141 130.814C205.141 131.728 205.826 132.469 206.67 132.469Z" fill="#A0616A"/>
<path d="M202.988 140.015C202.924 139.943 202.886 139.848 202.884 139.748L203.509 136.584C203.011 134.292 203.674 133.863 204.422 133.428L204.417 133.426L204.729 132.51C204.739 132.469 204.757 132.431 204.782 132.399C204.807 132.367 204.838 132.341 204.874 132.323C204.909 132.305 204.948 132.296 204.986 132.297C205.025 132.297 205.064 132.306 205.099 132.325L206.692 133.241C206.764 133.285 206.817 133.357 206.84 133.443C206.867 133.534 206.865 133.632 206.835 133.721L206.717 134.066C207.021 134.506 207.492 136.247 206.994 136.921L207.369 139.167C207.378 139.249 207.359 139.332 207.316 139.402C207.273 139.471 207.21 139.521 207.136 139.545L203.211 140.09C203.195 140.094 203.18 140.095 203.164 140.095C203.098 140.094 203.035 140.065 202.988 140.015Z" fill="#1F4C6B"/>
<path d="M208.703 136.385C208.678 136.411 208.655 136.438 208.634 136.468L205.555 136.237L205.224 135.508L204.143 135.904L204.612 137.256C204.65 137.366 204.72 137.459 204.811 137.521C204.901 137.584 205.009 137.613 205.116 137.604L208.617 137.317C208.695 137.434 208.803 137.522 208.928 137.57C209.053 137.618 209.189 137.624 209.317 137.587C209.445 137.55 209.56 137.471 209.646 137.361C209.731 137.252 209.784 137.117 209.798 136.974C209.811 136.831 209.783 136.687 209.719 136.561C209.655 136.435 209.557 136.334 209.438 136.27C209.319 136.206 209.185 136.183 209.054 136.203C208.923 136.224 208.8 136.287 208.703 136.385V136.385Z" fill="#A0616A"/>
<path d="M205.44 136.249L204.098 136.733C204.06 136.747 204.019 136.751 203.979 136.747C203.939 136.742 203.9 136.728 203.866 136.706C203.831 136.683 203.802 136.653 203.779 136.617C203.756 136.581 203.74 136.541 203.733 136.498L203.489 134.994C203.425 134.782 203.441 134.551 203.534 134.352C203.627 134.153 203.789 134.002 203.985 133.932C204.18 133.862 204.393 133.879 204.577 133.979C204.761 134.079 204.901 134.255 204.966 134.466L205.601 135.824C205.619 135.863 205.63 135.906 205.631 135.949C205.633 135.993 205.626 136.036 205.61 136.077C205.595 136.117 205.572 136.153 205.542 136.183C205.513 136.213 205.478 136.235 205.44 136.249Z" fill="#1F4C6B"/>
<path d="M205.811 129.507C206.499 129.507 207.056 128.903 207.056 128.159C207.056 127.414 206.499 126.811 205.811 126.811C205.124 126.811 204.567 127.414 204.567 128.159C204.567 128.903 205.124 129.507 205.811 129.507Z" fill="#2F2E41"/>
<path d="M208.117 131.019C208.237 131.045 208.362 131.033 208.477 130.986C208.536 130.95 208.586 130.9 208.623 130.839C208.66 130.778 208.683 130.709 208.691 130.636C208.923 128.968 207.613 129.105 207.458 129.033C207.36 128.97 207.268 128.898 207.184 128.816C206.965 128.685 206.717 128.626 206.468 128.645C206.174 128.616 205.877 128.655 205.598 128.761C205.355 128.884 205.153 129.086 205.02 129.338C204.888 129.589 204.791 129.86 204.733 130.142C204.641 130.461 204.624 130.8 204.684 131.128C204.748 131.373 204.881 131.59 205.064 131.749C205.247 131.908 205.472 132.001 205.706 132.015C205.669 131.819 205.692 131.614 205.772 131.434C205.852 131.253 205.985 131.106 206.151 131.016C206.413 130.876 206.712 130.837 206.998 130.906C207.183 130.947 207.371 130.972 207.56 130.982C207.746 130.99 207.968 131.002 208.117 131.019Z" fill="#2F2E41"/>
<path d="M327.744 153.69C327.745 151.922 328.394 150.226 329.549 148.976C330.705 147.726 332.271 147.024 333.903 147.024C335.536 147.024 337.102 147.726 338.257 148.976C339.412 150.226 340.062 151.922 340.063 153.69" fill="#F2F2F2"/>
<path d="M333.903 153.69C333.859 153.69 333.817 153.671 333.786 153.637C333.755 153.603 333.737 153.558 333.737 153.51V149.994C333.737 149.946 333.755 149.9 333.786 149.867C333.817 149.833 333.859 149.814 333.903 149.814C333.948 149.814 333.99 149.833 334.021 149.867C334.052 149.9 334.07 149.946 334.07 149.994V153.51C334.07 153.558 334.052 153.603 334.021 153.637C333.99 153.671 333.948 153.69 333.903 153.69Z" fill="#CCCCCC"/>
<path d="M333.903 152.482C333.864 152.482 333.825 152.467 333.795 152.438L331.797 150.582C331.78 150.566 331.767 150.547 331.757 150.526C331.746 150.505 331.74 150.482 331.739 150.458C331.737 150.434 331.739 150.411 331.746 150.388C331.753 150.365 331.764 150.344 331.778 150.326C331.793 150.308 331.81 150.293 331.83 150.283C331.849 150.272 331.871 150.266 331.893 150.264C331.915 150.262 331.937 150.265 331.957 150.273C331.978 150.28 331.998 150.292 332.014 150.308L334.012 152.165C334.038 152.189 334.056 152.221 334.065 152.257C334.073 152.292 334.071 152.33 334.06 152.364C334.048 152.399 334.026 152.429 333.998 152.45C333.971 152.471 333.937 152.482 333.903 152.482L333.903 152.482Z" fill="#CCCCCC"/>
<path d="M346.722 153.69C346.724 151.922 347.373 150.226 348.528 148.976C349.683 147.726 351.249 147.024 352.882 147.024C354.515 147.024 356.081 147.726 357.236 148.976C358.391 150.226 359.041 151.922 359.042 153.69" fill="#F2F2F2"/>
<path d="M352.882 153.69C352.838 153.69 352.796 153.671 352.764 153.637C352.733 153.603 352.716 153.558 352.716 153.51V149.994C352.716 149.946 352.733 149.9 352.764 149.867C352.796 149.833 352.838 149.814 352.882 149.814C352.926 149.814 352.969 149.833 353 149.867C353.031 149.9 353.049 149.946 353.049 149.994V153.51C353.049 153.558 353.031 153.603 353 153.637C352.969 153.671 352.926 153.69 352.882 153.69Z" fill="#CCCCCC"/>
<path d="M352.882 152.482C352.842 152.482 352.804 152.467 352.774 152.438L350.776 150.582C350.759 150.566 350.745 150.547 350.735 150.526C350.725 150.505 350.719 150.482 350.717 150.458C350.715 150.434 350.718 150.411 350.725 150.388C350.732 150.365 350.742 150.344 350.757 150.326C350.771 150.308 350.789 150.293 350.808 150.283C350.828 150.272 350.849 150.265 350.871 150.264C350.893 150.262 350.915 150.265 350.936 150.273C350.957 150.28 350.976 150.292 350.993 150.308L352.991 152.165C353.016 152.189 353.035 152.221 353.043 152.256C353.052 152.292 353.05 152.33 353.038 152.364C353.026 152.399 353.005 152.429 352.977 152.45C352.949 152.471 352.916 152.482 352.882 152.482V152.482Z" fill="#CCCCCC"/>
</g>
<defs>
<clipPath id="clip0_7_380">
<rect width="376" height="175" fill="white"/>
</clipPath>
</defs>
</svg>
