<svg width="208" height="230" viewBox="0 0 208 230" fill="none" xmlns="http://www.w3.org/2000/svg">
<circle cx="104" cy="104" r="104" fill="#F4EBFF"/>
<circle cx="104" cy="104" r="87" fill="white"/>
<g filter="url(#filter0_d_8_855)">
<path fill-rule="evenodd" clip-rule="evenodd" d="M100.373 49.5849C102.532 48.8192 104.941 48.8037 107.139 49.5478L143.645 61.7959C147.731 63.1604 150.495 66.9143 150.517 71.121L150.749 107.644C150.821 118.717 146.785 129.456 139.393 137.869C135.993 141.731 131.635 145.047 126.07 148.014L106.447 158.504C105.833 158.827 105.157 158.995 104.476 159C103.795 159.005 103.114 158.843 102.505 158.525L82.6984 148.277C77.0729 145.36 72.6762 142.092 69.2433 138.284C61.7296 129.957 57.5546 119.267 57.4826 108.179L57.2501 71.6816C57.2281 67.4695 59.9418 63.6889 64.006 62.2705L100.373 49.5849ZM124.597 88.7021C122.963 87.1327 120.333 87.1443 118.722 88.7353L100.194 106.997L92.6085 99.705C90.9751 98.1357 88.3513 98.1521 86.7345 99.7431C85.1232 101.334 85.1392 103.89 86.7726 105.46L97.3097 115.599C98.1292 116.386 99.1929 116.774 100.256 116.764C101.319 116.758 102.376 116.36 103.185 115.561L124.63 94.4199C126.241 92.8288 126.225 90.2716 124.597 88.7021Z" fill="#234F68"/>
</g>
<defs>
<filter id="filter0_d_8_855" x="2" y="26" width="204" height="204" filterUnits="userSpaceOnUse" color-interpolation-filters="sRGB">
<feFlood flood-opacity="0" result="BackgroundImageFix"/>
<feColorMatrix in="SourceAlpha" type="matrix" values="0 0 0 0 0 0 0 0 0 0 0 0 0 0 0 0 0 0 127 0" result="hardAlpha"/>
<feMorphology radius="12" operator="erode" in="SourceAlpha" result="effect1_dropShadow_8_855"/>
<feOffset dy="24"/>
<feGaussianBlur stdDeviation="24"/>
<feComposite in2="hardAlpha" operator="out"/>
<feColorMatrix type="matrix" values="0 0 0 0 0.121569 0 0 0 0 0.164706 0 0 0 0 0.215686 0 0 0 0.3 0"/>
<feBlend mode="normal" in2="BackgroundImageFix" result="effect1_dropShadow_8_855"/>
<feBlend mode="normal" in="SourceGraphic" in2="effect1_dropShadow_8_855" result="shape"/>
</filter>
</defs>
</svg>
